<svg width="1440" height="9329" viewBox="0 0 1440 9329" fill="none" xmlns="http://www.w3.org/2000/svg">
<g clip-path="url(#clip0_145_859)">
<rect width="1440" height="9329" fill="#071115"/>
<g filter="url(#filter0_f_145_859)">
<path d="M671.494 1632.61H353.312V1950.79H671.494V1632.61Z" fill="#AFAFAF"/>
<path d="M1434.57 -88.3187C1323.86 -29.9133 1231.42 49.3148 1157.53 149.366C1083.63 49.3148 990.692 -29.9133 878.706 -88.3187C766.72 -146.724 645.338 -175.927 514.053 -175.927H353.312V301.22H671.494V168.411C681.651 171.966 691.809 175.267 701.966 179.584C760.372 204.724 811.667 239.259 855.598 283.19C899.783 327.375 934.318 378.416 959.204 436.822C984.344 495.227 996.786 557.695 996.786 624.481C996.786 691.266 984.344 754.496 959.204 813.917C934.064 873.592 899.529 925.395 855.598 969.326C811.413 1013.51 760.372 1048.05 701.966 1072.93C643.561 1098.07 581.093 1110.51 514.307 1110.51H353.312V1519.86H671.494V1413.46C743.866 1399.24 812.936 1375.37 878.706 1341.09C990.692 1282.68 1083.63 1203.46 1157.53 1103.4C1231.42 1203.46 1323.86 1282.68 1434.57 1341.09C1545.29 1399.49 1667.43 1428.7 1801 1428.7H1958.19V1110.51H1801C1734.22 1110.51 1670.99 1098.07 1611.57 1072.93C1551.89 1047.79 1500.09 1013.51 1456.16 969.326C1411.97 925.141 1377.44 873.338 1352.55 813.917C1327.41 754.496 1314.97 691.266 1314.97 624.481C1314.97 557.695 1327.41 495.227 1352.55 436.822C1377.69 378.416 1411.97 327.121 1456.16 283.19C1500.34 239.259 1552.15 204.47 1611.57 179.584C1670.99 154.444 1734.22 142.002 1801 142.002H1958.19V-175.927H1801C1667.43 -175.927 1545.29 -146.724 1434.57 -88.3187Z" fill="#AFAFAF"/>
</g>
<g filter="url(#filter1_f_145_859)">
<path d="M318.182 3844.63H0V4162.82H318.182V3844.63Z" fill="#AFAFAF"/>
<path d="M1081.26 2123.71C970.545 2182.11 878.112 2261.34 804.217 2361.39C730.321 2261.34 637.38 2182.11 525.394 2123.71C413.409 2065.3 292.027 2036.1 160.742 2036.1H0V2513.25H318.182V2380.44C328.34 2383.99 338.497 2387.29 348.655 2391.61C407.06 2416.75 458.355 2451.28 502.286 2495.22C546.471 2539.4 581.007 2590.44 605.892 2648.85C631.032 2707.25 643.475 2769.72 643.475 2836.51C643.475 2903.29 631.032 2966.52 605.892 3025.94C580.753 3085.62 546.217 3137.42 502.286 3181.35C458.101 3225.54 407.06 3260.07 348.655 3284.96C290.249 3310.1 227.781 3322.54 160.996 3322.54H0V3731.89H318.182V3625.49C390.554 3611.27 459.625 3587.4 525.394 3553.11C637.38 3494.71 730.321 3415.48 804.217 3315.43C878.112 3415.48 970.545 3494.71 1081.26 3553.11C1191.98 3611.52 1314.12 3640.72 1447.69 3640.72H1604.88V3322.54H1447.69C1380.91 3322.54 1317.68 3310.1 1258.25 3284.96C1198.58 3259.82 1146.78 3225.54 1102.85 3181.35C1058.66 3137.17 1024.13 3085.36 999.24 3025.94C974.1 2966.52 961.657 2903.29 961.657 2836.51C961.657 2769.72 974.1 2707.25 999.24 2648.85C1024.38 2590.44 1058.66 2539.15 1102.85 2495.22C1147.03 2451.28 1198.83 2416.5 1258.25 2391.61C1317.68 2366.47 1380.91 2354.03 1447.69 2354.03H1604.88V2036.1H1447.69C1314.12 2036.1 1191.98 2065.3 1081.26 2123.71Z" fill="#AFAFAF"/>
</g>
<g filter="url(#filter2_f_145_859)">
<path d="M318.182 5890.04H0V6208.22H318.182V5890.04Z" fill="#AFAFAF"/>
<path d="M1081.26 4169.11C970.545 4227.52 878.112 4306.75 804.217 4406.8C730.321 4306.75 637.38 4227.52 525.394 4169.11C413.409 4110.71 292.027 4081.5 160.742 4081.5H0V4558.65H318.182V4425.84C328.34 4429.4 338.497 4432.7 348.655 4437.01C407.06 4462.15 458.355 4496.69 502.286 4540.62C546.471 4584.81 581.007 4635.85 605.892 4694.25C631.032 4752.66 643.475 4815.13 643.475 4881.91C643.475 4948.7 631.032 5011.93 605.892 5071.35C580.753 5131.02 546.217 5182.83 502.286 5226.76C458.101 5270.94 407.06 5305.48 348.655 5330.36C290.249 5355.5 227.781 5367.95 160.996 5367.95H0V5777.29H318.182V5670.89C390.554 5656.67 459.625 5632.8 525.394 5598.52C637.38 5540.11 730.321 5460.89 804.217 5360.84C878.112 5460.89 970.545 5540.11 1081.26 5598.52C1191.98 5656.93 1314.12 5686.13 1447.69 5686.13H1604.88V5367.95H1447.69C1380.91 5367.95 1317.68 5355.5 1258.25 5330.36C1198.58 5305.22 1146.78 5270.94 1102.85 5226.76C1058.66 5182.57 1024.13 5130.77 999.24 5071.35C974.1 5011.93 961.657 4948.7 961.657 4881.91C961.657 4815.13 974.1 4752.66 999.24 4694.25C1024.38 4635.85 1058.66 4584.55 1102.85 4540.62C1147.03 4496.69 1198.83 4461.9 1258.25 4437.01C1317.68 4411.88 1380.91 4399.43 1447.69 4399.43H1604.88V4081.5H1447.69C1314.12 4081.5 1191.98 4110.71 1081.26 4169.11Z" fill="#AFAFAF"/>
</g>
<g filter="url(#filter3_f_145_859)">
<path d="M318.182 7852.53H0V8170.72H318.182V7852.53Z" fill="#AFAFAF"/>
<path d="M1081.26 6131.61C970.545 6190.01 878.112 6269.24 804.217 6369.29C730.321 6269.24 637.38 6190.01 525.394 6131.61C413.409 6073.2 292.027 6044 160.742 6044H0V6521.15H318.182V6388.34C328.34 6391.89 338.497 6395.19 348.655 6399.51C407.06 6424.65 458.355 6459.19 502.286 6503.12C546.471 6547.3 581.007 6598.34 605.892 6656.75C631.032 6715.15 643.475 6777.62 643.475 6844.41C643.475 6911.19 631.032 6974.42 605.892 7033.84C580.753 7093.52 546.217 7145.32 502.286 7189.25C458.101 7233.44 407.06 7267.97 348.655 7292.86C290.249 7318 227.781 7330.44 160.996 7330.44H0V7739.79H318.182V7633.39C390.554 7619.17 459.625 7595.3 525.394 7561.02C637.38 7502.61 730.321 7423.38 804.217 7323.33C878.112 7423.38 970.545 7502.61 1081.26 7561.02C1191.98 7619.42 1314.12 7648.62 1447.69 7648.62H1604.88V7330.44H1447.69C1380.91 7330.44 1317.68 7318 1258.25 7292.86C1198.58 7267.72 1146.78 7233.44 1102.85 7189.25C1058.66 7145.07 1024.13 7093.27 999.24 7033.84C974.1 6974.42 961.657 6911.19 961.657 6844.41C961.657 6777.62 974.1 6715.15 999.24 6656.75C1024.38 6598.34 1058.66 6547.05 1102.85 6503.12C1147.03 6459.19 1198.83 6424.4 1258.25 6399.51C1317.68 6374.37 1380.91 6361.93 1447.69 6361.93H1604.88V6044H1447.69C1314.12 6044 1191.98 6073.2 1081.26 6131.61Z" fill="#AFAFAF"/>
</g>
<g filter="url(#filter4_f_145_859)">
<path d="M318.182 9778.53H0V10096.7H318.182V9778.53Z" fill="#AFAFAF"/>
<path d="M1081.26 8057.61C970.545 8116.01 878.112 8195.24 804.217 8295.29C730.321 8195.24 637.38 8116.01 525.394 8057.61C413.409 7999.2 292.027 7970 160.742 7970H0V8447.15H318.182V8314.34C328.34 8317.89 338.497 8321.19 348.655 8325.51C407.06 8350.65 458.355 8385.19 502.286 8429.12C546.471 8473.3 581.007 8524.34 605.892 8582.75C631.032 8641.15 643.475 8703.62 643.475 8770.41C643.475 8837.19 631.032 8900.42 605.892 8959.84C580.753 9019.52 546.217 9071.32 502.286 9115.25C458.101 9159.44 407.06 9193.97 348.655 9218.86C290.249 9244 227.781 9256.44 160.996 9256.44H0V9665.79H318.182V9559.39C390.554 9545.17 459.625 9521.3 525.394 9487.02C637.38 9428.61 730.321 9349.38 804.217 9249.33C878.112 9349.38 970.545 9428.61 1081.26 9487.02C1191.98 9545.42 1314.12 9574.62 1447.69 9574.62H1604.88V9256.44H1447.69C1380.91 9256.44 1317.68 9244 1258.25 9218.86C1198.58 9193.72 1146.78 9159.44 1102.85 9115.25C1058.66 9071.07 1024.13 9019.27 999.24 8959.84C974.1 8900.42 961.657 8837.19 961.657 8770.41C961.657 8703.62 974.1 8641.15 999.24 8582.75C1024.38 8524.34 1058.66 8473.05 1102.85 8429.12C1147.03 8385.19 1198.83 8350.4 1258.25 8325.51C1317.68 8300.37 1380.91 8287.93 1447.69 8287.93H1604.88V7970H1447.69C1314.12 7970 1191.98 7999.2 1081.26 8057.61Z" fill="#AFAFAF"/>
</g>
</g>
<defs>
<filter id="filter0_f_145_859" x="-133.682" y="-662.92" width="2578.86" height="3100.7" filterUnits="userSpaceOnUse" color-interpolation-filters="sRGB">
<feFlood flood-opacity="0" result="BackgroundImageFix"/>
<feBlend mode="normal" in="SourceGraphic" in2="BackgroundImageFix" result="shape"/>
<feGaussianBlur stdDeviation="243.497" result="effect1_foregroundBlur_145_859"/>
</filter>
<filter id="filter1_f_145_859" x="-486.993" y="1549.11" width="2578.86" height="3100.7" filterUnits="userSpaceOnUse" color-interpolation-filters="sRGB">
<feFlood flood-opacity="0" result="BackgroundImageFix"/>
<feBlend mode="normal" in="SourceGraphic" in2="BackgroundImageFix" result="shape"/>
<feGaussianBlur stdDeviation="243.497" result="effect1_foregroundBlur_145_859"/>
</filter>
<filter id="filter2_f_145_859" x="-486.993" y="3594.51" width="2578.86" height="3100.7" filterUnits="userSpaceOnUse" color-interpolation-filters="sRGB">
<feFlood flood-opacity="0" result="BackgroundImageFix"/>
<feBlend mode="normal" in="SourceGraphic" in2="BackgroundImageFix" result="shape"/>
<feGaussianBlur stdDeviation="243.497" result="effect1_foregroundBlur_145_859"/>
</filter>
<filter id="filter3_f_145_859" x="-486.993" y="5557.01" width="2578.86" height="3100.7" filterUnits="userSpaceOnUse" color-interpolation-filters="sRGB">
<feFlood flood-opacity="0" result="BackgroundImageFix"/>
<feBlend mode="normal" in="SourceGraphic" in2="BackgroundImageFix" result="shape"/>
<feGaussianBlur stdDeviation="243.497" result="effect1_foregroundBlur_145_859"/>
</filter>
<filter id="filter4_f_145_859" x="-486.993" y="7483.01" width="2578.86" height="3100.7" filterUnits="userSpaceOnUse" color-interpolation-filters="sRGB">
<feFlood flood-opacity="0" result="BackgroundImageFix"/>
<feBlend mode="normal" in="SourceGraphic" in2="BackgroundImageFix" result="shape"/>
<feGaussianBlur stdDeviation="243.497" result="effect1_foregroundBlur_145_859"/>
</filter>
<clipPath id="clip0_145_859">
<rect width="1440" height="9329" fill="white"/>
</clipPath>
</defs>
</svg>
