<svg xmlns="http://www.w3.org/2000/svg">
	<symbol id="icon-why-1">
		<path d="M46.9488 29.0287C48.2789 29.7429 49.8021 30.014 51.2969 29.8028C52.7918 29.5916 54.1802 28.909 55.2604 27.8543C56.5874 26.5363 58.2076 25.5511 59.9883 24.9793C61.9219 24.3911 63.9714 24.2934 65.9522 24.6949C67.933 25.0964 69.7826 25.9846 71.3345 27.2793L73.176 28.7542C74.568 29.8616 75.6913 31.2696 76.4618 32.8729C77.2323 34.4761 77.63 36.2329 77.625 38.0117C77.6273 46.4039 76.3237 54.7453 73.761 62.7367C73.6449 63.0998 73.6779 63.4942 73.8525 63.8331C74.0272 64.1719 74.3294 64.4275 74.6925 64.5436C74.8318 64.5889 74.9773 64.6122 75.1238 64.6126C75.4292 64.612 75.7265 64.5142 75.9725 64.3332C76.2186 64.1523 76.4006 63.8977 76.4923 63.6064C79.1465 55.334 80.4985 46.6994 80.5 38.0117C80.506 35.802 80.0118 33.6197 79.0546 31.6281C78.0974 29.6366 76.702 27.8874 74.9728 26.5117L73.1314 25.0368C71.208 23.4435 68.9182 22.3541 66.4686 21.867C64.0189 21.3799 61.4866 21.5104 59.1 22.2466C56.8917 22.9553 54.8825 24.1765 53.2364 25.8102C52.596 26.4332 51.7736 26.8358 50.8888 26.9597C50.0039 27.0835 49.1027 26.922 48.3158 26.4987C48.1495 26.4046 47.9661 26.3445 47.7763 26.3221C47.5864 26.2997 47.3941 26.3154 47.2104 26.3682C47.0267 26.421 46.8554 26.51 46.7065 26.6298C46.5576 26.7496 46.434 26.8979 46.3431 27.066C46.2522 27.2342 46.1958 27.4188 46.1771 27.609C46.1584 27.7992 46.1778 27.9912 46.2342 28.1738C46.2906 28.3565 46.3828 28.526 46.5055 28.6726C46.6282 28.8191 46.7789 28.9411 46.9488 29.0287Z" fill="white"/>
		<path d="M64.3799 46.7188C63.242 44.7567 61.61 43.127 59.6462 41.992C57.6825 40.857 55.4556 40.2564 53.1875 40.25C52.8063 40.25 52.4406 40.4014 52.171 40.671C51.9014 40.9406 51.75 41.3063 51.75 41.6875C51.75 42.0687 51.9014 42.4344 52.171 42.704C52.4406 42.9736 52.8063 43.125 53.1875 43.125C54.9515 43.1305 56.6834 43.5978 58.2107 44.4805C59.7381 45.3632 61.0076 46.6305 61.893 48.1562C62.0192 48.3748 62.2006 48.5562 62.4191 48.6824C62.6377 48.8086 62.8855 48.875 63.1379 48.875C63.3905 48.8754 63.6386 48.8085 63.8566 48.6809C64.1859 48.4898 64.4259 48.1759 64.524 47.8081C64.6221 47.4402 64.5703 47.0484 64.3799 46.7188Z" fill="white"/>
		<path d="M64.6875 53.1875C65.4814 53.1875 66.125 52.5439 66.125 51.75C66.125 50.9561 65.4814 50.3125 64.6875 50.3125C63.8936 50.3125 63.25 50.9561 63.25 51.75C63.25 52.5439 63.8936 53.1875 64.6875 53.1875Z" fill="white"/>
		<path d="M88.7038 80.5718L76.5066 68.3746C76.2319 68.1149 75.8683 67.9702 75.4902 67.9702C75.1122 67.9702 74.7486 68.1149 74.4739 68.3746L69.0761 62.9768C71.0134 59.8604 71.9839 56.24 71.8652 52.5724C71.7465 48.9049 70.5438 45.3548 68.4091 42.3702C68.3008 42.2136 68.1624 42.08 68.0021 41.9773C67.8417 41.8746 67.6625 41.8048 67.4749 41.7719C67.2874 41.7391 67.0951 41.7438 66.9094 41.7858C66.7236 41.8279 66.5481 41.9064 66.393 42.0169C66.2378 42.1274 66.1062 42.2676 66.0057 42.4293C65.9052 42.5911 65.8379 42.7712 65.8076 42.9592C65.7773 43.1473 65.7847 43.3394 65.8293 43.5246C65.8739 43.7097 65.9548 43.8841 66.0674 44.0377C67.6008 46.1885 68.5701 48.6896 68.8864 51.312C69.2028 53.9344 68.8561 56.5943 67.8782 59.048C66.9003 61.5018 65.3224 63.6709 63.289 65.3569C61.2556 67.0428 58.8317 68.1916 56.2393 68.6981L55.8425 67.3051C55.5158 66.1572 54.8395 65.1396 53.9076 64.3939C52.9757 63.6482 51.8346 63.2115 50.643 63.1445C49.4513 63.0774 48.2684 63.3834 47.2588 64.0198C46.2491 64.6563 45.4629 65.5916 45.0095 66.6956C43.1901 65.5978 41.6108 64.1442 40.3664 62.4217C39.1219 60.6992 38.2378 58.7434 37.767 56.6712C37.2961 54.599 37.2483 52.4531 37.6262 50.362C38.0042 48.2709 38.8002 46.2776 39.9666 44.5013C41.133 42.7251 42.6459 41.2025 44.4146 40.0246C46.1833 38.8468 48.1714 38.0379 50.2601 37.6465C52.3487 37.2551 54.4948 37.2891 56.57 37.7466C58.6452 38.204 60.6067 39.0755 62.3371 40.3089C62.4907 40.4215 62.6652 40.5024 62.8503 40.547C63.0354 40.5916 63.2276 40.599 63.4156 40.5687C63.6036 40.5384 63.7838 40.4711 63.9455 40.3706C64.1073 40.2701 64.2475 40.1385 64.358 39.9833C64.4684 39.8282 64.547 39.6527 64.589 39.4669C64.6311 39.2812 64.6358 39.0889 64.6029 38.9014C64.5701 38.7138 64.5002 38.5346 64.3975 38.3742C64.2948 38.2139 64.1613 38.0755 64.0046 37.9672C61.9336 36.4915 59.583 35.4543 57.097 34.9192C54.6109 34.384 52.0418 34.3623 49.547 34.8552C47.0522 35.3481 44.6844 36.3453 42.5887 37.7857C40.4929 39.2261 38.7134 41.0793 37.3592 43.2317C36.005 45.3842 35.1047 47.7905 34.7134 50.3032C34.3221 52.8159 34.4481 55.3821 35.0836 57.8444C35.7191 60.3067 36.8508 62.6132 38.4093 64.6227C39.9678 66.6322 41.9203 68.3022 44.147 69.5304L41.5437 78.647C41.2324 79.7331 40.5275 80.6643 39.5667 81.2589C38.6059 81.8534 37.4581 82.0687 36.3471 81.8627C35.5505 81.6907 34.8112 81.3176 34.1997 80.7788C33.5882 80.24 33.1249 79.5536 32.854 78.785L28.3086 66.8537C25.3694 59.1335 23.6276 51.0093 23.1437 42.7627C23.1214 42.3814 22.9486 42.0247 22.6632 41.7708C22.3778 41.517 22.0033 41.387 21.6221 41.4093C21.2409 41.4316 20.8841 41.6044 20.6303 41.8898C20.3765 42.1751 20.2464 42.5496 20.2687 42.9309C20.7685 51.4716 22.5729 59.8855 25.6191 67.8801L30.163 79.8114C30.611 81.0432 31.3677 82.1395 32.3606 82.9952C33.3535 83.851 34.5495 84.4376 35.8339 84.6989C37.6468 85.0324 39.5188 84.679 41.0852 83.7074C42.6516 82.7358 43.8 81.2156 44.3066 79.4434L46.7963 70.7321C48.843 71.4857 51.0065 71.8726 53.1874 71.8749C53.5094 71.8749 53.8243 71.8433 54.1419 71.826L56.2364 79.1573C56.6064 80.5375 57.3541 81.7871 58.3952 82.7657C59.4363 83.7444 60.7298 84.4133 62.1301 84.6974C62.569 84.7757 63.014 84.8151 63.4598 84.8153C64.5236 84.8169 65.575 84.5875 66.5415 84.143C67.5079 83.6985 68.3664 83.0495 69.0574 82.2407C69.3074 81.9523 69.4325 81.5764 69.4052 81.1958C69.378 80.8151 69.2007 80.4609 68.9123 80.211C68.6238 79.9611 68.248 79.836 67.8673 79.8632C67.4867 79.8904 67.1324 80.0678 66.8825 80.3562C66.3674 80.957 65.704 81.4124 64.9583 81.6772C64.2125 81.942 63.4104 82.0069 62.6318 81.8656C61.7616 81.6768 60.9612 81.2495 60.3201 80.6316C59.679 80.0136 59.2227 79.2294 59.0021 78.3667L57.0328 71.4667C59.138 71.0186 61.1494 70.2077 62.9768 69.0704L68.3746 74.4682C68.1051 74.7377 67.9537 75.1033 67.9537 75.4845C67.9537 75.8657 68.1051 76.2312 68.3746 76.5008L73.6833 81.808C73.8134 81.954 73.972 82.0719 74.1492 82.1545C74.3264 82.2371 74.5187 82.2827 74.7141 82.2884C74.9096 82.2941 75.1042 82.26 75.286 82.1879C75.4678 82.1159 75.6329 82.0075 75.7714 81.8694C75.9099 81.7314 76.0187 81.5665 76.0913 81.3849C76.1638 81.2033 76.1986 81.0088 76.1934 80.8134C76.1882 80.6179 76.1432 80.4255 76.0611 80.248C75.979 80.0706 75.8615 79.9117 75.7159 79.7812L71.425 75.4902L75.4902 71.4236L85.6548 81.5881L81.5896 85.6548L79.7812 83.8479C79.5101 83.586 79.147 83.4411 78.7701 83.4444C78.3931 83.4477 78.0326 83.5989 77.7661 83.8654C77.4996 84.1319 77.3484 84.4924 77.3451 84.8694C77.3418 85.2463 77.4867 85.6094 77.7486 85.8805L80.5732 88.7037C80.8428 88.9732 81.2084 89.1246 81.5896 89.1246C81.9707 89.1246 82.3363 88.9732 82.6059 88.7037L88.7038 82.6044C88.9732 82.3349 89.1246 81.9693 89.1246 81.5881C89.1246 81.2069 88.9732 80.8414 88.7038 80.5718ZM53.1874 68.9999C51.2772 68.9967 49.3836 68.6445 47.5999 67.9606C47.7993 67.3842 48.177 66.8862 48.6781 66.5386C49.1792 66.1909 49.778 66.0117 50.3877 66.0267C50.9974 66.0418 51.5866 66.2503 52.07 66.6223C52.5534 66.9942 52.906 67.5102 53.0768 68.0957L53.3312 68.9999C53.2838 68.9999 53.2363 68.9999 53.1874 68.9999ZM67.3641 65.33L72.4413 70.4072L70.4073 72.4399L65.33 67.3641C66.0588 66.7388 66.7388 66.0588 67.3641 65.33Z" fill="white"/>
		<path d="M21.1313 39.1832C21.3835 39.1836 21.6314 39.1177 21.8501 38.992L44.2578 26.0545C44.4215 25.9601 44.5649 25.8344 44.68 25.6845C44.795 25.5346 44.8794 25.3635 44.9282 25.181C44.9771 24.9985 44.9895 24.8082 44.9647 24.6209C44.94 24.4336 44.8785 24.253 44.7839 24.0894L39.9956 15.7965C39.8036 15.469 39.4899 15.2308 39.1229 15.1338C38.756 15.0367 38.3655 15.0888 38.0367 15.2786C37.708 15.4684 37.4677 15.7805 37.3682 16.1469C37.2688 16.5132 37.3182 16.904 37.5059 17.234L41.5754 24.2778L21.6574 35.7777L15.8126 25.6707L27.5023 23.9859C27.8676 23.933 28.1986 23.7415 28.4266 23.4512L42.7887 5.19494C42.9663 4.9691 43.0722 4.69521 43.0927 4.40861C43.1132 4.12201 43.0473 3.83584 42.9036 3.58704C42.7598 3.33825 42.5448 3.13823 42.2863 3.01282C42.0278 2.8874 41.7376 2.84233 41.4532 2.88344L18.4676 6.18969C18.1018 6.24229 17.7702 6.4338 17.5419 6.72444L3.18125 24.9807C3.03187 25.1737 2.93464 25.4019 2.89889 25.6433C2.86315 25.8847 2.89009 26.1312 2.97712 26.3592H2.96275L7.36293 38.3379C6.57886 38.9765 6.04568 39.8716 5.85756 40.8651C5.66944 41.8586 5.83848 42.8867 6.33483 43.7677C6.83118 44.6487 7.6229 45.3259 8.57015 45.6798C9.5174 46.0337 10.5592 46.0414 11.5116 45.7016C12.464 45.3618 13.2657 44.6964 13.7751 43.8229C14.2844 42.9493 14.4687 41.9239 14.2953 40.9277C14.122 39.9315 13.6021 39.0286 12.8276 38.3785C12.0531 37.7284 11.0737 37.3729 10.0626 37.3748L6.26756 27.0449L12.7435 26.112L19.8749 38.4644C20.0655 38.7946 20.3793 39.0355 20.7475 39.1343C20.8726 39.168 21.0017 39.1844 21.1313 39.1832ZM11.5001 41.6873C11.5001 41.9716 11.4157 42.2495 11.2578 42.4859C11.0998 42.7223 10.8753 42.9066 10.6127 43.0154C10.35 43.1242 10.061 43.1527 9.78212 43.0972C9.50327 43.0417 9.24713 42.9048 9.04609 42.7038C8.84505 42.5027 8.70815 42.2466 8.65268 41.9678C8.59721 41.6889 8.62568 41.3999 8.73448 41.1372C8.84328 40.8745 9.02753 40.65 9.26393 40.4921C9.50032 40.3341 9.77825 40.2498 10.0626 40.2498C10.4438 40.2498 10.8094 40.4013 11.079 40.6708C11.3486 40.9404 11.5001 41.3061 11.5001 41.6873ZM19.4466 8.96406L38.3066 6.24719L26.5191 21.2231L7.65906 23.9399L19.4466 8.96406Z" fill="white"/>
		<path d="M69.0747 33.5168C69.17 33.8029 69.3529 34.0518 69.5975 34.2282C69.8421 34.4047 70.1359 34.4998 70.4375 34.5C70.5918 34.4995 70.7451 34.4748 70.8918 34.4267C71.2533 34.306 71.5522 34.0466 71.7226 33.7056C71.8929 33.3646 71.9209 32.9699 71.8003 32.6083C71.288 31.0654 70.3025 29.7233 68.9838 28.7726C67.6651 27.8219 66.0803 27.311 64.4546 27.3125H63.25C62.8688 27.3125 62.5031 27.464 62.2335 27.7335C61.9639 28.0031 61.8125 28.3688 61.8125 28.75C61.8125 29.1313 61.9639 29.4969 62.2335 29.7665C62.5031 30.0361 62.8688 30.1875 63.25 30.1875H64.4546C65.4768 30.1868 66.4733 30.5081 67.3026 31.1057C68.1319 31.7033 68.7519 32.5469 69.0747 33.5168Z" fill="white"/>
	</symbol>
	<symbol id="icon-why-2">
		<path d="M21.6775 30.7121V30.1934H18.5807V30.7121C18.5807 31.5993 18.6039 32.4865 18.6488 33.3691L21.7425 33.2112C21.7007 32.3797 21.6775 31.5482 21.6775 30.7121Z" fill="white"/>
		<path d="M21.9886 36.2104L18.912 36.5619C19.7977 44.3612 22.5166 51.9839 26.7731 58.6032L29.3775 56.9279C25.3765 50.7049 22.8232 43.5405 21.9886 36.2104Z" fill="white"/>
		<path d="M57.0751 15.0381C54.3933 16.8497 51.2548 17.8066 48 17.8066C44.7453 17.8066 41.6083 16.8497 38.9265 15.0396L37.1938 17.6069C40.3897 19.7638 44.126 20.9034 48 20.9034C51.8741 20.9034 55.6104 19.7638 58.8078 17.6053L57.0751 15.0381Z" fill="white"/>
		<path d="M13.9355 59.6128H10.8387C10.8387 65.588 5.97523 70.4515 0 70.4515V73.5483C5.97523 73.5483 10.8387 78.4118 10.8387 84.387H13.9355C13.9355 78.4118 18.799 73.5483 24.7742 73.5483V70.4515C18.799 70.4515 13.9355 65.588 13.9355 59.6128ZM12.3871 78.0309C11.0555 75.4451 8.94194 73.3315 6.35613 71.9999C8.94194 70.6683 11.0555 68.5547 12.3871 65.9689C13.7187 68.5547 15.8323 70.6683 18.4181 71.9999C15.8323 73.3315 13.7187 75.4451 12.3871 78.0309Z" fill="white"/>
		<path d="M85.1613 19.3549H82.1961C79.2635 12.0604 72.0851 6.96777 63.9515 6.96777C60.1115 6.96777 56.5006 8.00674 53.5091 9.9701C50.1971 12.1502 45.8044 12.1502 42.4908 9.9701C39.5009 8.00674 35.8901 6.96777 32.0485 6.96777C21.2067 6.96777 12.3871 15.7874 12.3871 26.6292V30.7123C12.3871 41.8142 15.5613 52.6158 21.5644 61.9541C24.7943 66.9786 27.1664 72.4645 28.6157 78.2586L30.3004 85.0003C30.8919 87.3755 33.0147 89.0323 35.4611 89.0323C38.1166 89.0323 40.3308 87.1262 40.7226 84.5002L44.1956 61.3394C44.4821 59.4426 46.0815 58.0645 48 58.0645C49.9184 58.0645 51.5179 59.4426 51.8028 61.3394L55.2759 84.5002C55.6692 87.1262 57.8833 89.0323 60.5388 89.0323C62.9853 89.0323 65.1081 87.3755 65.6996 85.0003L67.3858 78.2586C68.8351 72.463 71.2088 66.9771 74.4387 61.9541C77.9675 56.4635 80.5486 50.3319 82.0583 43.968C82.0568 44.0222 82.0645 44.0749 82.0645 44.1291H85.1613C85.1613 38.1538 90.0248 33.2904 96 33.2904V30.1936C90.0248 30.1936 85.1613 25.3301 85.1613 19.3549ZM71.8328 60.2787C68.4186 65.5897 65.9133 71.3869 64.3819 77.5092L62.6942 84.2509C62.448 85.2434 61.5608 85.9355 60.5388 85.9355C59.4286 85.9355 58.5042 85.1381 58.3401 84.0403L54.8671 60.8795C54.353 57.4529 51.4637 54.9678 48 54.9678C44.5362 54.9678 41.647 57.4529 41.1329 60.8795L37.6599 84.0403C37.4973 85.1381 36.5713 85.9355 35.4611 85.9355C34.4392 85.9355 33.552 85.2434 33.3027 84.2509L31.6165 77.5092C30.0867 71.3853 27.5799 65.5882 24.1657 60.2787C18.4862 51.4421 15.4839 41.2181 15.4839 30.7123V26.6292C15.4839 17.4953 22.9146 10.0645 32.0485 10.0645C35.2831 10.0645 38.3055 10.927 40.7891 12.559C42.9584 13.9851 45.3863 14.7097 48 14.7097C50.6137 14.7097 53.0415 13.9851 55.2093 12.559C57.6944 10.927 60.7169 10.0645 63.9515 10.0645C72.1208 10.0645 79.169 16.1513 80.3303 24.0991L80.3953 25.1071C78.4753 28.1559 75.0875 30.1936 71.2258 30.1936V33.2904C74.8614 33.2904 78.0774 35.0958 80.0439 37.8504C78.9987 45.7905 76.162 53.5433 71.8328 60.2787ZM83.6129 37.7729C82.2813 35.1871 80.1677 33.0736 77.5819 31.742C80.1677 30.4104 82.2813 28.2968 83.6129 25.711C84.9445 28.2968 87.0581 30.4104 89.6439 31.742C87.0581 33.0736 84.9445 35.1871 83.6129 37.7729Z" fill="white"/>
	</symbol>
	<symbol id="icon-why-3">
		<path d="M58.7962 19.5977C55.2872 19.5977 51.5881 21.638 48.8838 23.1299C48.2389 23.4856 46.9483 24.3479 46.5002 24.3476C46.0552 24.3476 44.7696 23.4878 44.1252 23.1317C41.4298 21.6402 37.7384 19.5977 34.2042 19.5977C29.739 19.5977 25.6399 21.4337 22.6623 24.7678C19.8401 27.9275 18.2855 32.0831 18.2855 36.4703C18.2855 42.6063 20.4799 51.3129 24.1557 59.7595C25.7934 63.5222 27.5391 66.7768 29.2042 69.1733C31.2789 72.1586 33.1159 73.6099 34.8203 73.6099C35.6389 73.6099 37.1327 73.2775 37.9367 71.0519C38.6062 69.2003 39.2059 67.0846 39.8437 64.8337C41.2926 59.7198 43.4825 51.9912 46.3943 51.9912H46.6063C47.8493 51.9912 49.0119 53.1602 50.1598 55.5647C51.3809 58.1218 52.3192 61.5599 53.2274 64.8856C53.8355 67.1132 54.4099 69.2176 55.0605 71.0441C55.8501 73.2602 57.3311 73.5917 58.1444 73.5922C59.8428 73.5922 61.6789 72.1193 63.7574 69.0895C65.4185 66.668 67.1675 63.3817 68.8145 59.5858C72.5087 51.0737 74.714 42.4327 74.714 36.4708C74.714 32.0836 73.1596 27.9275 70.3376 24.7683C67.3605 21.4337 63.2616 19.5977 58.7962 19.5977ZM65.6692 58.22C64.1294 61.768 62.4463 64.9388 60.9301 67.1489C59.5805 69.1161 59.2106 69.3248 58.5097 69.9527C58.4179 70.0349 58.3297 69.9988 58.2916 69.8926C57.6826 68.192 57.1268 66.1467 56.5351 63.9796C55.5884 60.5101 54.6089 56.9222 53.2551 54.0868C51.4795 50.3688 49.3047 48.5611 46.6063 48.5611H46.3943C43.7859 48.5611 41.658 50.3544 39.888 54.0435C38.54 56.8533 37.5232 60.4416 36.5375 63.9207C35.9214 66.0951 35.3397 68.1483 34.7121 69.884C34.6844 69.9604 34.6403 70.1275 34.467 70.0761C34.0422 69.9511 33.3938 69.1906 32.0204 67.2147C30.5033 65.0318 28.8273 61.898 27.3004 58.3904C23.8552 50.4732 21.7152 42.0735 21.7152 36.4697C21.7152 29.8615 26.3865 23.0264 34.204 23.0264C36.2242 23.0264 38.9023 23.9614 41.3677 25.5277C41.7225 25.7533 42.2402 26.1511 42.7406 26.536C42.9449 26.6934 43.1463 26.8478 43.3345 26.9897C43.947 27.4482 44.7741 28.0476 45.7476 28.6203C46.2631 28.925 46.7322 29.1953 47.2616 29.4196C49.3824 30.32 51.6311 30.7765 53.9454 30.7765C56.3281 30.7765 61.237 29.7669 61.237 29.2179C61.237 28.8437 55.4435 29.5453 51.2479 27.9364C50.5827 27.6813 49.2253 27.2374 49.2253 27.0632C49.2253 26.9385 49.3483 26.8255 49.47 26.7523C49.7694 26.5733 50.108 26.3707 50.5446 26.1298C52.9182 24.8201 56.1692 23.0264 58.7958 23.0264C66.613 23.0264 71.2846 29.8615 71.2846 36.4697C71.285 41.9029 69.1329 50.2369 65.6692 58.22Z" fill="white"/>
		<path d="M87.5819 21.8494C87.4678 19.1564 85.5243 16.3018 83.0597 15.2102L50.4269 0.750148C49.335 0.266375 47.9278 0 46.4643 0C45.0007 0 43.5937 0.266375 42.5019 0.750148L9.86876 15.2102C7.39892 16.3045 5.46405 19.1655 5.36854 21.8651C5.32 23.2258 4.2565 55.3106 10.2632 65.8223C16.2467 76.2929 41.3834 91.3417 42.4505 91.977C43.5578 92.637 44.9883 92.9998 46.4784 92.9998C47.9566 92.9998 49.3766 92.6419 50.4769 91.9917C51.5542 91.3559 76.9207 76.2962 82.9064 65.8216C88.9169 55.3038 87.6395 23.2107 87.5819 21.8494ZM79.0584 63.6232C73.6526 73.0828 48.4771 88.0262 48.2238 88.1762C47.8079 88.4213 47.1559 88.5685 46.4787 88.5685C45.7957 88.5685 45.1373 88.4195 44.7184 88.1698C44.4673 88.02 19.5194 73.0866 14.1115 63.6232C9.64338 55.8037 9.48272 30.9418 9.79785 22.022C9.83308 21.0307 10.7574 19.6639 11.6642 19.2621L44.2976 4.80228C44.8204 4.57048 45.6308 4.43219 46.4643 4.43219C47.2984 4.43219 48.1082 4.57048 48.6309 4.80228L81.2643 19.2621C82.1758 19.6661 83.1116 21.0398 83.1535 22.036C83.5293 30.9526 83.5256 55.8051 79.0584 63.6232Z" fill="white"/>
	</symbol>
</svg>
