<svg width="124" height="29" viewBox="0 0 124 29" fill="none" xmlns="http://www.w3.org/2000/svg">
<rect width="124" height="29" fill="black"/>
<rect width="124" height="29" fill="#FF4100"/>
<path d="M23.5577 13.4759H12.2324V11.7603H23.5577C24.2792 11.7603 24.799 11.9808 24.799 12.6113C24.799 13.2554 24.2792 13.4759 23.5577 13.4759ZM25.9107 14.4004C27.4413 14.2979 28.2923 13.2863 28.2923 12.1278C28.2923 10.5128 26.676 9.45679 24.1346 9.45679H8.76758V19.7231H12.2324V15.5589H23.9765C24.7704 15.5589 25.2616 15.822 25.2616 16.4834C25.2616 17.1449 24.7704 17.4215 23.9765 17.4215H13.4451L15.7124 19.7231H24.7133C27.2548 19.7231 28.8711 18.638 28.8711 16.9225C28.8711 15.3674 27.527 14.5029 25.9107 14.4004ZM59.7878 19.7231H63.3116V12.1703H71.254V9.45679H59.7878V19.7231ZM51.8587 9.45679V12.1703H58.5751L55.9041 9.45679H51.8587ZM73.3614 15.7794H92.1932V13.4024H73.3614V15.7794ZM73.3614 19.7231H92.1932V17.348H73.3614V19.7231ZM73.3614 11.8338H92.1932V9.45679H73.3614V11.8338ZM31.2222 15.7794H50.054V13.4024H31.2222V15.7794ZM31.2222 19.7231H50.054V17.348H31.2222V19.7231ZM31.2222 11.8338H50.054V9.45679H31.2222V11.8338ZM111.838 16.4737C111.952 16.4428 112.07 16.4061 112.194 16.3654C113.711 15.8587 114.72 14.7659 114.72 13.0794C114.72 10.6289 112.582 9.45679 109.883 9.45679H94.8185V19.7231H98.3118V12.0234H109.593C110.503 12.0234 111.153 12.2864 111.153 13.1664C111.153 14.0464 110.503 14.3114 109.593 14.3114H101.878L99.5245 16.702H107.851L110.825 19.7231H115.036L111.838 16.4737Z" fill="black"/>
</svg>
