<svg width="164" height="110" viewBox="0 0 164 110" fill="none" xmlns="http://www.w3.org/2000/svg">
<path d="M92.3875 4.71573C94.991 3.26376 98.4969 1.89091 101.731 1.79648C104.434 1.71755 106.948 2.51042 108.664 4.81327C110.664 7.49687 110.874 11.3516 110.16 15.4979C109.476 19.4695 107.944 23.7374 106.362 27.4453C105.965 28.377 105.301 29.4676 104.573 30.3822C103.885 31.2472 103.11 31.9861 102.392 32.3521C100.966 33.189 98.3317 33.8955 94.9232 34.3897C91.3288 34.9109 86.8163 35.2217 81.9283 35.2217C77.2879 35.2217 72.9792 34.9403 69.47 34.4638C65.9838 33.9905 63.2574 33.3088 61.7306 32.5014C61.7048 32.4897 61.6793 32.477 61.6542 32.4631C60.8751 32.0347 59.7809 31.0879 58.8065 29.9588C57.9811 29.0023 57.2184 27.8936 56.7733 26.8282C55.2447 23.1697 53.8038 19.022 53.1834 15.1645C52.5369 11.1442 52.7878 7.42363 54.7331 4.81327C56.8965 1.91032 60.1639 1.33485 63.696 1.91106C65.4915 2.20398 67.3549 2.80128 69.1615 3.53243C71.7344 0.520809 74.3493 -0.265244 76.8756 0.0728962C79.3298 0.401332 81.5711 1.79992 83.5908 3.20342C83.6083 3.21552 83.6252 3.22811 83.6417 3.24103C84.0185 3.11726 84.3813 3.00809 84.7313 2.91408C86.7676 2.367 88.3941 2.32824 89.7872 2.89422C90.8149 3.31179 91.6546 3.93391 92.3875 4.71573ZM82.4249 41.1714C88.7307 41.1714 94.458 41.9405 98.6202 43.1839C103.13 44.531 105.934 46.5464 105.984 48.9163C106.268 51.0475 106.134 53.9478 105.822 56.8721C105.319 61.59 104.347 66.4215 103.941 68.071C103.484 69.9254 103.348 71.8994 103.398 73.9238C103.448 75.978 103.692 78.1061 103.987 80.2215C104.552 84.2705 103.357 92.5564 101.053 99.2648C99.1947 104.676 96.5489 109.155 93.3719 109.916C93.0847 109.985 92.8043 110.01 92.5347 109.996C91.848 109.96 91.2255 109.681 90.7265 109.195C90.2755 108.756 89.9343 108.148 89.7563 107.405C89.6451 106.941 89.5971 106.426 89.6266 105.87C89.6306 105.793 89.6426 105.717 89.6616 105.645C89.7511 105.209 89.8417 104.811 89.939 104.383C90.5368 101.754 91.388 98.0093 90.5716 93.6737C89.9375 96.0406 89.2164 98.3587 88.4331 100.449C86.5923 105.361 84.3201 109.096 81.8403 109.584C80.8807 109.773 80.0943 109.232 79.4806 108.4C78.8393 107.531 78.3556 106.252 78.1644 105.522C77.3973 102.591 76.8035 99.3966 76.2117 96.2136C75.6528 93.2073 75.0958 90.211 74.401 87.4946C73.1 91.7703 73.3781 95.4988 73.6716 99.4292C73.8243 101.474 73.9809 103.573 73.9316 105.893C73.9586 106.44 73.9104 106.947 73.8008 107.405C73.6227 108.148 73.2815 108.756 72.8305 109.195C72.3315 109.681 71.709 109.96 71.0223 109.996C70.7527 110.011 70.4724 109.984 70.1852 109.916C67.0238 109.158 64.4087 104.729 62.5649 99.3609C60.2576 92.6435 59.0572 84.3056 59.5703 80.2344C59.8222 78.2361 60.0076 76.2384 60.0373 74.2774C60.0665 72.3455 59.9431 70.438 59.5796 68.5839C59.4289 67.8156 58.23 61.4438 58.0933 55.6649C58.0185 52.5023 58.2696 49.4948 59.1892 47.5816C59.2124 47.533 59.2388 47.4869 59.268 47.4434C60.1975 45.7126 62.6874 44.2421 66.2296 43.1839C70.3918 41.9405 76.1191 41.1714 82.4249 41.1714ZM103.94 52.3209C102.67 53.2785 100.855 54.1102 98.6202 54.7777C94.458 56.0211 88.7307 56.7902 82.4249 56.7902C76.1191 56.7902 70.3918 56.0211 66.2296 54.7777C63.6671 54.0122 61.6552 53.0309 60.3864 51.8913C60.2781 53.0323 60.253 54.302 60.284 55.6133C60.4157 61.1821 61.5886 67.4113 61.736 68.163C62.127 70.1572 62.2596 72.2151 62.228 74.3032C62.1969 76.3622 62.0047 78.4397 61.7438 80.5093C61.2659 84.3016 62.4302 92.2025 64.6439 98.6478C66.2679 103.376 68.3895 107.234 70.692 107.785C70.7654 107.803 70.8387 107.809 70.9106 107.805C71.052 107.798 71.1866 107.734 71.3013 107.623C71.4639 107.464 71.5932 107.219 71.6702 106.898C71.7324 106.638 71.7583 106.332 71.7397 105.982C71.7374 105.938 71.7379 105.894 71.7408 105.851C71.7865 103.686 71.6318 101.613 71.4809 99.5925C71.1085 94.6053 70.7595 89.9249 73.3624 84.0101C73.041 83.0968 72.6909 82.2411 72.3042 81.458C71.8937 80.6266 71.4901 80.1106 71.1154 79.8504C70.9513 79.7365 70.8171 79.6905 70.7136 79.7015C70.6067 79.7129 70.4871 79.7855 70.3638 79.9073C70.093 80.1747 69.8634 80.6169 69.7053 81.1838C69.544 81.7674 68.9401 82.1097 68.3565 81.9484C67.7729 81.7871 67.4306 81.1832 67.5919 80.5996C67.8538 79.6607 68.2844 78.8786 68.826 78.3437C69.3003 77.8751 69.8611 77.5856 70.4816 77.5194C71.1056 77.4528 71.7465 77.6135 72.3697 78.0463C73.0304 78.5051 73.6835 79.2963 74.2716 80.4873C76.2703 84.5352 77.316 90.1596 78.3681 95.8184C78.9524 98.9613 79.5387 102.115 80.2863 104.972C80.4304 105.522 80.7875 106.475 81.2504 107.103C81.3838 107.284 81.3735 107.437 81.4193 107.428C83.03 107.111 84.7904 103.925 86.3799 99.6842C88.5592 93.8692 90.2464 86.2135 90.8649 80.829C91.0646 79.0912 91.6775 77.9311 92.4669 77.2494C93.0174 76.7739 93.644 76.5284 94.2854 76.4794C94.9088 76.4318 95.5334 76.5724 96.1024 76.869C96.1358 76.8864 96.1679 76.9052 96.1987 76.9254C97.0893 77.4232 97.8431 78.3168 98.2016 79.4605C98.3819 80.0393 98.0588 80.6547 97.4799 80.835C96.9011 81.0153 96.2857 80.6922 96.1054 80.1134C95.9233 79.5323 95.5657 79.0885 95.1506 78.8489C95.1298 78.8397 95.1091 78.8298 95.0886 78.8192C94.8755 78.7081 94.655 78.6544 94.4486 78.6701C94.2602 78.6845 94.0721 78.7601 93.9016 78.9074C93.5004 79.2539 93.1773 79.9444 93.0471 81.0781C92.7669 83.5169 92.2716 86.4134 91.6124 89.4036C94.1332 95.8246 92.8893 101.296 92.0781 104.864C91.9765 105.311 91.8817 105.728 91.8142 106.052C91.8024 106.373 91.8288 106.656 91.8868 106.898C91.9638 107.219 92.0931 107.464 92.2557 107.623C92.3704 107.734 92.505 107.798 92.6463 107.805C92.7183 107.809 92.7915 107.803 92.865 107.785C95.185 107.229 97.3353 103.324 98.9743 98.5517C101.181 92.1264 102.338 84.2864 101.813 80.5222C101.511 78.3527 101.26 76.154 101.207 73.9754C101.153 71.7671 101.304 69.6019 101.81 67.5469C102.204 65.9465 103.148 61.2484 103.64 56.6401C103.799 55.1473 103.911 53.6694 103.94 52.3209ZM97.9931 45.2887C94.0264 44.1037 88.5235 43.3707 82.4249 43.3707C76.3263 43.3707 70.8234 44.1037 66.8567 45.2887C63.8488 46.1872 61.8056 47.2596 61.2302 48.3553C61.2135 48.4132 61.192 48.4705 61.1651 48.5266C61.1488 48.5605 61.1329 48.5951 61.1171 48.6301C61.0823 48.7469 61.0643 48.8639 61.0643 48.9808C61.0643 50.2886 63.2779 51.6038 66.8567 52.6729C70.8234 53.8579 76.3263 54.5909 82.4249 54.5909C88.5235 54.5909 94.0264 53.8579 97.9931 52.6729C101.572 51.6038 103.785 50.2886 103.785 48.9808C103.785 47.673 101.572 46.3578 97.9931 45.2887ZM71.3841 75.9354C71.0135 76.0125 70.6504 75.7745 70.5733 75.4038C70.4963 75.0332 70.7343 74.6702 71.1049 74.5931C71.9805 74.411 73.1117 74.5859 74.3035 75.6209C75.1398 76.3472 76.0196 77.5145 76.8681 79.3169C77.0298 79.6594 76.8831 80.0681 76.5406 80.2298C76.1981 80.3914 75.7894 80.2447 75.6278 79.9022C74.8674 78.2871 74.1099 77.2679 73.4068 76.6572C72.6026 75.9588 71.9019 75.8278 71.3841 75.9354ZM101.268 30.4713C101.287 30.4588 101.306 30.4468 101.326 30.4354C101.39 30.3941 101.451 30.3527 101.506 30.311C101.579 30.2558 101.657 30.2112 101.738 30.1768C102.083 29.9104 102.472 29.4969 102.855 29.0162C103.468 28.2456 104.021 27.3433 104.344 26.5862C105.869 23.0098 107.345 18.9079 107.995 15.1285C108.616 11.5238 108.488 8.24581 106.903 6.1191C105.687 4.48731 103.824 3.92786 101.792 3.98719C99.0746 4.0665 96.0643 5.22099 93.7366 6.48234C94.4548 7.60142 95.1032 8.89191 95.8041 10.2866C95.8127 10.3039 95.799 10.2764 96.2018 11.0718C96.4747 11.6127 96.2574 12.2724 95.7165 12.5452C95.1756 12.818 94.5159 12.6007 94.2431 12.0598C94.1104 11.7977 94.1148 11.8023 93.8453 11.266C92.3328 8.25593 91.0976 5.79784 88.9624 4.93027C88.048 4.55873 86.8638 4.61547 85.2983 5.03606C83.5744 5.4992 81.4309 6.39882 78.7448 7.65093C77.3393 8.30613 76.336 8.54695 75.358 8.47775C74.3878 8.40905 73.5692 8.04424 72.4749 7.48202C69.659 6.03528 66.3569 4.56753 63.3437 4.07599C60.5769 3.62461 58.0609 4.01691 56.4943 6.1191C54.9538 8.18613 54.7884 11.3389 55.3484 14.8209C55.9345 18.4658 57.3233 22.4501 58.8007 25.9863C59.1512 26.8251 59.7777 27.7282 60.4646 28.5241C61.2738 29.4619 62.1347 30.2219 62.7109 30.5388C62.7294 30.549 62.7476 30.5597 62.7653 30.5708C64.0415 31.2506 66.5114 31.849 69.7621 32.2903C73.1519 32.7506 77.3569 33.0224 81.9283 33.0224C86.7278 33.0224 91.1309 32.7213 94.6139 32.2162C97.799 31.7544 100.16 31.1467 101.268 30.4713ZM71.2829 4.45781C72.0356 4.80808 72.7685 5.17068 73.4714 5.53186C74.3156 5.96556 74.9261 6.24553 75.5126 6.28704C76.0914 6.32798 76.7728 6.14456 77.817 5.65782C79.0126 5.1005 80.1093 4.60928 81.1203 4.1901C79.6626 3.25318 78.1248 2.45151 76.5921 2.2464C74.9029 2.02031 73.1198 2.53475 71.2829 4.45781ZM39.507 74.5931C39.8777 74.6702 40.1157 75.0332 40.0386 75.4038C39.9615 75.7745 39.5985 76.0125 39.2278 75.9354C38.7101 75.8278 38.0094 75.9588 37.2052 76.6572C36.502 77.2679 35.7445 78.2871 34.9842 79.9022C34.8225 80.2447 34.4138 80.3914 34.0713 80.2298C33.7289 80.0681 33.5822 79.6594 33.7438 79.3169C34.5923 77.5145 35.4721 76.3472 36.3085 75.6209C37.5003 74.5859 38.6315 74.411 39.507 74.5931ZM18.3143 51.0792C18.1452 51.4187 17.7329 51.5569 17.3934 51.3879C17.0539 51.2189 16.9157 50.8066 17.0847 50.4671C17.3553 49.9238 17.5501 49.5223 17.7435 49.1239C19.3092 45.8974 20.8067 42.8114 23.4236 41.7481C23.775 41.6058 24.1753 41.7753 24.3176 42.1267C24.46 42.4781 24.2905 42.8784 23.9391 43.0207C21.8094 43.886 20.4255 46.738 18.9784 49.7199C18.7356 50.2203 18.4914 50.7236 18.3143 51.0792ZM26.8903 37.7183C26.9068 37.7054 26.9237 37.6928 26.9411 37.6807C28.9609 36.2772 31.2022 34.8786 33.6563 34.5502C36.1827 34.2121 38.7976 34.9981 41.3704 38.0097C43.1771 37.2786 45.0404 36.6813 46.836 36.3884C50.368 35.8122 53.6354 36.3876 55.7988 39.2906C56.1594 39.7769 56.0575 40.4635 55.5712 40.8241C55.0849 41.1846 54.3983 41.0827 54.0377 40.5964C52.4711 38.4942 49.9551 38.1019 47.1882 38.5533C44.1751 39.0448 40.873 40.5126 38.0571 41.9593C36.9628 42.5216 36.1442 42.8864 35.174 42.9551C34.196 43.0243 33.1927 42.7834 31.7871 42.1282C29.1011 40.8761 26.9576 39.9765 25.2337 39.5134C23.6682 39.0928 22.4839 39.0361 21.5695 39.4076C19.4343 40.2751 18.1992 42.7332 16.6866 45.7432C16.419 46.276 16.4287 46.2609 16.2888 46.5371C16.016 47.078 15.3564 47.2953 14.8155 47.0225C14.2746 46.7497 14.0573 46.09 14.3301 45.5492C14.7401 44.7395 14.721 44.7775 14.7279 44.7638C15.4287 43.3692 16.0772 42.0788 16.7954 40.9597C14.4677 39.6983 11.4573 38.5438 8.7404 38.4645C6.7079 38.4052 4.84529 38.9646 3.62922 40.5964C1.76423 43.099 1.91155 47.1808 2.92792 51.5199C3.9893 56.0513 6.00193 60.8235 7.72669 64.4852C8.87211 66.9169 9.33165 69.5783 9.4048 72.3361C9.47625 75.0304 9.17896 77.7967 8.79876 80.5222C8.27368 84.2864 9.43081 92.1264 11.6377 98.5517C13.2767 103.324 15.427 107.229 17.747 107.785C17.8204 107.803 17.8937 107.809 17.9656 107.805C18.107 107.798 18.2416 107.734 18.3562 107.623C18.5189 107.464 18.6482 107.219 18.7252 106.898C18.7832 106.656 18.8096 106.373 18.7978 106.052C18.7303 105.728 18.6355 105.311 18.5339 104.864C17.7227 101.296 16.4788 95.8247 18.9996 89.4036C18.3404 86.4133 17.845 83.5168 17.5649 81.0781C17.4347 79.9444 17.1116 79.2539 16.7104 78.9074C16.5399 78.7601 16.3518 78.6845 16.1634 78.6701C15.957 78.6544 15.7364 78.7081 15.5233 78.8192C15.5028 78.8298 15.4822 78.8397 15.4614 78.8489C15.0463 79.0885 14.6887 79.5323 14.5066 80.1134C14.3263 80.6922 13.7109 81.0153 13.132 80.835C12.5532 80.6547 12.2301 80.0393 12.4104 79.4605C12.7688 78.3168 13.5227 77.4232 14.4133 76.9254C14.4441 76.9052 14.4762 76.8864 14.5095 76.869C15.0785 76.5724 15.7032 76.4318 16.3266 76.4794C16.968 76.5284 17.5945 76.7739 18.1451 77.2494C18.9345 77.9311 19.5475 79.0912 19.747 80.829C20.3656 86.2135 22.0527 93.8692 24.2321 99.6842C25.8215 103.925 27.582 107.111 29.1926 107.428C29.2385 107.437 29.2281 107.284 29.3616 107.103C29.8245 106.475 30.1816 105.522 30.3256 104.972C31.0732 102.115 31.6596 98.9613 32.2439 95.8184C33.296 90.1596 34.3416 84.5352 36.3404 80.4873C36.9284 79.2963 37.5816 78.5051 38.2422 78.0463C38.8655 77.6135 39.5064 77.4528 40.1303 77.5194C40.7509 77.5856 41.3116 77.8751 41.786 78.3437C42.3276 78.8786 42.7582 79.6607 43.0201 80.5996C43.1814 81.1832 42.8391 81.7871 42.2555 81.9484C41.6719 82.1097 41.068 81.7674 40.9067 81.1838C40.7485 80.6169 40.5189 80.1747 40.2482 79.9073C40.1249 79.7855 40.0053 79.7129 39.8984 79.7015C39.7948 79.6905 39.6606 79.7365 39.4965 79.8504C39.1219 80.1106 38.7182 80.6266 38.3077 81.458C37.9211 82.2411 37.571 83.0968 37.2496 84.0101C39.8524 89.9249 39.5035 94.6053 39.1311 99.5925C38.9802 101.613 38.8255 103.686 38.8711 105.851C38.8741 105.894 38.8745 105.938 38.8723 105.982C38.8537 106.332 38.8796 106.638 38.9417 106.898C39.0187 107.219 39.148 107.464 39.3107 107.623C39.4253 107.734 39.5599 107.798 39.7013 107.805C39.7732 107.809 39.8465 107.803 39.9199 107.785C42.2399 107.229 44.3902 103.324 46.0292 98.5517C48.2361 92.1264 49.3932 84.2864 48.8682 80.5222C48.488 77.7967 48.1906 75.0304 48.2621 72.3361C48.3352 69.5783 48.7948 66.9169 49.9402 64.4852C50.573 63.1419 51.2394 61.6618 51.8757 60.12C52.5126 58.5766 53.1316 56.9428 53.6759 55.2772C53.8633 54.7008 54.4826 54.3854 55.0591 54.5728C55.6355 54.7602 55.9509 55.3795 55.7635 55.9559C55.2092 57.6522 54.5683 59.3416 53.9031 60.9534C53.2373 62.5668 52.5594 64.0743 51.9247 65.4216C50.9217 67.551 50.5183 69.9174 50.4528 72.3877C50.3856 74.9214 50.6737 77.5839 51.0417 80.2215C51.6065 84.2705 50.4124 92.5564 48.1082 99.2648C46.2497 104.676 43.6039 109.155 40.4268 109.916C40.1396 109.984 39.8592 110.011 39.5897 109.996C38.903 109.96 38.2805 109.681 37.7815 109.195C37.3305 108.756 36.9892 108.148 36.8112 107.405C36.7015 106.947 36.6534 106.44 36.6804 105.893C36.631 103.573 36.7877 101.474 36.9404 99.4292C37.2339 95.4988 37.512 91.7703 36.211 87.4946C35.5162 90.2111 34.9591 93.2073 34.4002 96.2136C33.8085 99.3966 33.2146 102.591 32.4476 105.522C32.2564 106.252 31.7727 107.531 31.1313 108.4C30.5177 109.232 29.7313 109.773 28.7717 109.584C26.2919 109.096 24.0197 105.361 22.1788 100.449C21.3955 98.3588 20.6744 96.0406 20.0403 93.6737C19.2239 98.0093 20.0752 101.754 20.673 104.383C20.7703 104.811 20.8609 105.209 20.9504 105.645C20.9694 105.717 20.9814 105.793 20.9853 105.87C21.0148 106.426 20.9669 106.941 20.8558 107.405C20.6777 108.148 20.3365 108.756 19.8855 109.195C19.3865 109.681 18.7639 109.96 18.0773 109.996C17.8077 110.011 17.5272 109.984 17.2401 109.916C14.063 109.155 11.4172 104.676 9.55867 99.2648C7.25453 92.5564 6.06045 84.2705 6.62526 80.2215C6.99317 77.5839 7.28128 74.9214 7.21409 72.3877C7.14855 69.9174 6.7452 67.551 5.74216 65.4216C3.96651 61.6518 1.89214 56.7289 0.788786 52.0182C-0.359627 47.1153 -0.454911 42.4077 1.86809 39.2906C3.58428 36.9877 6.09762 36.1949 8.80055 36.2738C12.0351 36.3682 15.541 37.7411 18.1445 39.193C18.8773 38.4112 19.7171 37.7891 20.7448 37.3715C22.1379 36.8055 23.7644 36.8443 25.8007 37.3914C26.1506 37.4854 26.5135 37.5946 26.8903 37.7183ZM39.249 38.9351C37.4121 37.012 35.6291 36.4976 33.9398 36.7237C32.4072 36.9288 30.8693 37.7305 29.4117 38.6674C30.4227 39.0866 31.5194 39.5778 32.7149 40.1351C33.7591 40.6219 34.4406 40.8053 35.0193 40.7644C35.6059 40.7228 36.2164 40.4429 37.0605 40.0092C37.7635 39.648 38.4963 39.2854 39.249 38.9351ZM124.437 75.9354C124.067 76.0125 123.704 75.7745 123.627 75.4038C123.55 75.0332 123.788 74.6702 124.158 74.5931C125.034 74.411 126.165 74.5859 127.357 75.6209C128.193 76.3472 129.073 77.5145 129.921 79.3169C130.083 79.6594 129.936 80.0681 129.594 80.2298C129.251 80.3914 128.843 80.2447 128.681 79.9022C127.921 78.2871 127.163 77.2679 126.46 76.6572C125.656 75.9588 124.955 75.8278 124.437 75.9354ZM146.581 50.4671C146.75 50.8066 146.611 51.2189 146.272 51.3879C145.932 51.5569 145.52 51.4187 145.351 51.0792C145.174 50.7236 144.93 50.2203 144.687 49.7199C143.24 46.738 141.856 43.886 139.726 43.0207C139.375 42.8784 139.205 42.4781 139.348 42.1267C139.49 41.7753 139.89 41.6058 140.242 41.7481C142.859 42.8114 144.356 45.8974 145.922 49.1239C146.115 49.5223 146.31 49.9238 146.581 50.4671ZM136.724 37.6807C136.742 37.6928 136.758 37.7054 136.775 37.7183C137.152 37.5945 137.515 37.4854 137.865 37.3914C139.901 36.8443 141.527 36.8055 142.92 37.3715C143.948 37.7891 144.788 38.4112 145.521 39.193C148.124 37.741 151.63 36.3682 154.865 36.2738C157.568 36.1949 160.081 36.9877 161.797 39.2906C164.12 42.4077 164.025 47.1153 162.876 52.0182C161.773 56.7289 159.699 61.6518 157.923 65.4216C156.92 67.551 156.517 69.9174 156.451 72.3877C156.384 74.9214 156.672 77.5839 157.04 80.2215C157.605 84.2705 156.411 92.5564 154.107 99.2648C152.248 104.676 149.602 109.155 146.425 109.916C146.138 109.985 145.858 110.01 145.588 109.996C144.901 109.96 144.279 109.681 143.78 109.195C143.329 108.756 142.988 108.148 142.81 107.405C142.698 106.941 142.65 106.426 142.68 105.87C142.684 105.793 142.696 105.717 142.715 105.645C142.804 105.209 142.895 104.811 142.992 104.383C143.59 101.754 144.441 98.0093 143.625 93.6737C142.991 96.0406 142.27 98.3587 141.486 100.449C139.646 105.361 137.373 109.096 134.894 109.584C133.934 109.773 133.148 109.232 132.534 108.4C131.893 107.531 131.409 106.252 131.218 105.522C130.451 102.591 129.857 99.3966 129.265 96.2136C128.706 93.2073 128.149 90.211 127.454 87.4946C126.153 91.7703 126.431 95.4988 126.725 99.4292C126.878 101.474 127.034 103.573 126.985 105.893C127.012 106.44 126.964 106.947 126.854 107.405C126.676 108.148 126.335 108.756 125.884 109.195C125.385 109.681 124.762 109.96 124.076 109.996C123.806 110.011 123.526 109.984 123.238 109.916C120.061 109.155 117.416 104.676 115.557 99.2648C113.253 92.5564 112.059 84.2705 112.624 80.2215C112.992 77.5839 113.28 74.9214 113.212 72.3877C113.147 69.9174 112.743 67.551 111.741 65.4216C111.107 64.0764 110.43 62.5714 109.765 60.9605C109.101 59.3515 108.461 57.6649 107.907 55.9712C107.719 55.3947 108.035 54.7754 108.611 54.588C109.188 54.4006 109.807 54.716 109.994 55.2925C110.538 56.9553 111.156 58.5863 111.793 60.1272C112.428 61.6662 113.093 63.1439 113.725 64.4852C114.87 66.9169 115.33 69.5783 115.403 72.3361C115.475 75.0304 115.177 77.7967 114.797 80.5222C114.272 84.2864 115.429 92.1264 117.636 98.5517C119.275 103.324 121.425 107.229 123.745 107.785C123.819 107.803 123.892 107.809 123.964 107.805C124.105 107.798 124.24 107.734 124.355 107.623C124.517 107.464 124.646 107.219 124.724 106.898C124.786 106.638 124.812 106.332 124.793 105.982C124.791 105.938 124.791 105.894 124.794 105.851C124.84 103.686 124.685 101.613 124.534 99.5925C124.162 94.6053 123.813 89.9249 126.416 84.0101C126.094 83.0968 125.744 82.2411 125.358 81.458C124.947 80.6266 124.543 80.1106 124.169 79.8504C124.005 79.7365 123.87 79.6905 123.767 79.7015C123.66 79.7129 123.54 79.7855 123.417 79.9073C123.146 80.1747 122.917 80.6169 122.759 81.1838C122.597 81.7674 121.993 82.1097 121.41 81.9484C120.826 81.7871 120.484 81.1832 120.645 80.5996C120.907 79.6607 121.338 78.8786 121.879 78.3437C122.354 77.8751 122.914 77.5856 123.535 77.5194C124.159 77.4528 124.8 77.6135 125.423 78.0463C126.084 78.5051 126.737 79.2963 127.325 80.4873C129.324 84.5352 130.369 90.1596 131.421 95.8184C132.006 98.9613 132.592 102.115 133.34 104.972C133.484 105.522 133.841 106.475 134.304 107.103C134.437 107.284 134.427 107.437 134.473 107.428C136.083 107.111 137.844 103.925 139.433 99.6842C141.612 93.8692 143.3 86.2135 143.918 80.829C144.118 79.0912 144.731 77.9311 145.52 77.2494C146.071 76.7739 146.697 76.5284 147.339 76.4794C147.962 76.4318 148.587 76.5724 149.156 76.869C149.189 76.8864 149.221 76.9052 149.252 76.9254C150.143 77.4232 150.896 78.3168 151.255 79.4605C151.435 80.0393 151.112 80.6547 150.533 80.835C149.954 81.0153 149.339 80.6922 149.159 80.1134C148.977 79.5323 148.619 79.0885 148.204 78.8489C148.183 78.8397 148.162 78.8298 148.142 78.8192C147.929 78.7081 147.708 78.6544 147.502 78.6701C147.314 78.6845 147.125 78.7601 146.955 78.9074C146.554 79.2539 146.231 79.9444 146.1 81.0781C145.82 83.5169 145.325 86.4134 144.666 89.4036C147.186 95.8246 145.943 101.296 145.131 104.864C145.03 105.311 144.935 105.728 144.867 106.052C144.856 106.373 144.882 106.656 144.94 106.898C145.017 107.219 145.146 107.464 145.309 107.623C145.424 107.734 145.558 107.798 145.7 107.805C145.772 107.809 145.845 107.803 145.918 107.785C148.238 107.229 150.389 103.324 152.028 98.5517C154.234 92.1264 155.392 84.2864 154.866 80.5222C154.486 77.7967 154.189 75.0304 154.26 72.3361C154.334 69.5783 154.793 66.9169 155.939 64.4852C157.663 60.8235 159.676 56.0513 160.737 51.5199C161.754 47.1807 161.901 43.099 160.036 40.5964C158.82 38.9646 156.957 38.4052 154.925 38.4645C152.208 38.5438 149.198 39.6983 146.87 40.9597C147.588 42.0787 148.237 43.3692 148.937 44.7638C148.944 44.7775 148.925 44.7395 149.335 45.5492C149.608 46.09 149.391 46.7497 148.85 47.0225C148.309 47.2953 147.649 47.078 147.376 46.5371C147.237 46.2609 147.246 46.276 146.979 45.7432C145.466 42.7332 144.231 40.2751 142.096 39.4076C141.181 39.036 139.997 39.0928 138.432 39.5134C136.708 39.9765 134.564 40.8761 131.878 42.1282C130.473 42.7834 129.469 43.0243 128.491 42.9551C127.521 42.8864 126.702 42.5216 125.608 41.9593C122.792 40.5126 119.49 39.0448 116.477 38.5533C113.71 38.1019 111.194 38.4942 109.628 40.5964C109.267 41.0827 108.58 41.1846 108.094 40.8241C107.608 40.4635 107.506 39.7769 107.866 39.2906C110.03 36.3876 113.297 35.8122 116.829 36.3884C118.625 36.6813 120.488 37.2786 122.295 38.0097C124.868 34.9981 127.483 34.2121 130.009 34.5502C132.463 34.8786 134.704 36.2772 136.724 37.6807ZM134.254 38.6674C132.796 37.7305 131.258 36.9288 129.725 36.7237C128.036 36.4976 126.253 37.0121 124.416 38.9351C125.169 39.2854 125.902 39.648 126.605 40.0092C127.449 40.4429 128.059 40.7228 128.646 40.7644C129.225 40.8053 129.906 40.6219 130.95 40.1351C132.146 39.5778 133.243 39.0866 134.254 38.6674ZM93.4473 15.9898C93.6163 16.3293 93.4781 16.7416 93.1385 16.9106C92.799 17.0796 92.3867 16.9414 92.2177 16.6019C92.0405 16.246 91.7963 15.743 91.5535 15.2425C90.1065 12.2606 88.7225 9.40868 86.5929 8.54337C86.2415 8.40105 86.072 8.00075 86.2143 7.64936C86.3566 7.29797 86.7569 7.12849 87.1083 7.27081C89.7252 8.33411 91.2227 11.4199 92.7884 14.6465C92.9817 15.0449 93.1767 15.4466 93.4473 15.9898Z" fill="white"/>
</svg>
