<svg width="92" height="115" viewBox="0 0 92 115" fill="none" xmlns="http://www.w3.org/2000/svg">
<g clip-path="url(#clip0_145_1111)">
<path d="M77.8046 65.0285C76.118 64.218 74.946 63.5963 73.2748 64.8743C73.0821 65.017 72.896 65.1702 72.712 65.3244C72.5273 66.5254 72.6557 67.7537 73.0849 68.8904C74.7407 67.7075 76.3173 66.4174 77.8046 65.0285ZM34.5616 36.6557L34.5375 36.6798C34.5282 36.7301 34.5143 36.7795 34.496 36.8273C34.4967 36.8451 34.4948 36.863 34.4903 36.8803C34.4787 37.1945 34.5018 37.5135 34.5018 37.8277C34.5034 37.9032 34.4956 37.9786 34.4787 38.0522C34.4758 38.104 34.4697 38.1555 34.4604 38.2064C35.0936 38.2064 35.7335 38.2122 36.3783 38.1949C36.7272 38.1881 37.0703 38.1766 37.4144 38.165C36.9153 37.8032 36.4515 37.395 36.0294 36.9458C35.899 37.0338 35.7462 37.0827 35.589 37.0868C35.4317 37.0909 35.2766 37.05 35.1418 36.9689C35.0901 36.9373 35.0422 36.8998 34.9991 36.8571C34.8922 36.8172 34.794 36.757 34.71 36.6798C34.6869 36.6557 34.6628 36.6384 34.6396 36.6143C34.6098 36.6258 34.5857 36.6441 34.5625 36.6499L34.5616 36.6557ZM42.6265 58.1866C42.6232 58.1896 42.6212 58.1938 42.6207 58.1982C42.5851 58.2695 42.5725 58.2753 42.5966 58.2223C42.5404 58.3689 42.4537 58.502 42.3422 58.6126L42.4309 60.1759C44.0115 59.9744 45.7684 59.7904 47.1717 60.6722C47.7892 60.9992 48.3222 61.4654 48.7282 62.034C49.0598 62.6017 49.2785 63.206 49.6216 63.7563C54.5369 60.8505 59.4108 56.3757 57.8658 51.0199C56.0983 44.8961 50.464 42.7574 45.036 40.7749C45.0418 41.6327 45.0475 42.4914 45.0658 43.3492C45.0658 43.3791 45.0591 43.4022 45.0591 43.4321C45.0722 43.6048 45.0384 43.7779 44.9614 43.9331C44.8844 44.0883 44.767 44.2198 44.6215 44.3139C44.0944 44.6994 43.6038 45.1312 43.0949 45.5389C43.118 47.3084 43.1457 49.0782 43.1778 50.8484H43.2954C43.2954 50.5872 43.2954 50.3328 43.2896 50.0725C43.2894 49.9659 43.3138 49.8607 43.3609 49.7651C43.3458 49.6394 43.3722 49.5123 43.4363 49.4031C43.5004 49.2939 43.5985 49.2088 43.7156 49.1608C44.9348 48.5758 46.1781 49.102 47.4445 49.1377C47.5464 49.1377 47.647 49.1612 47.7384 49.2064C47.8298 49.2515 47.9096 49.317 47.9717 49.3979C48.0769 49.4963 48.145 49.6281 48.1644 49.7709C48.4056 51.9817 48.3139 54.2161 47.8926 56.3998C47.8739 56.5304 47.8229 56.6543 47.7442 56.7602C47.6757 56.8872 47.5811 56.9982 47.4666 57.086C46.5134 57.8136 45.2885 57.2402 44.2235 57.2575C44.0714 57.2643 43.9219 57.2168 43.8015 57.1236C43.6812 57.0304 43.5978 56.8976 43.5662 56.7487C43.514 56.652 43.4837 56.5451 43.4775 56.4354C43.4477 56.021 43.4303 55.6124 43.4062 55.1979C43.3474 55.1979 43.2819 55.1922 43.2135 55.1864C43.2192 55.861 43.2308 56.5357 43.2308 57.2103C43.2375 57.357 43.2042 57.5027 43.1344 57.6319C43.0646 57.7611 42.961 57.8689 42.8347 57.9438C42.8048 57.9794 42.7749 58.0209 42.7383 58.0623C42.7325 58.0623 42.6323 58.1982 42.6265 58.1982C42.6207 58.1982 42.6265 58.1963 42.6265 58.1866ZM33.2451 58.2753C33.242 58.272 33.2379 58.27 33.2335 58.2695C33.1978 58.2464 33.1564 58.2223 33.1149 58.1982C32.9463 58.0985 32.8155 57.9459 32.7428 57.764C32.6701 57.5822 32.6596 57.3814 32.713 57.193C32.5855 55.2421 32.5736 53.2854 32.6774 51.3332C32.6774 49.5521 32.5116 47.7942 32.4528 46.0246C32.1831 45.9983 31.916 45.9506 31.6538 45.882C31.4653 45.8302 31.3001 45.7156 31.1854 45.5572C31.0823 45.4488 31.0127 45.3129 30.985 45.1659C30.6655 43.2539 30.633 41.3049 30.8886 39.3832C30.9022 38.878 31.0931 38.3936 31.4279 38.0149C31.7627 37.6362 32.22 37.3874 32.7198 37.312C32.6938 36.9664 32.7218 36.6188 32.8027 36.2818C32.8994 35.9355 33.0922 35.6238 33.3588 35.3826C29.6771 31.8166 26.2682 27.8718 22.7572 24.1555C20.1453 21.4055 17.546 18.6458 14.9592 15.8766C13.7333 14.7492 12.6212 13.5041 11.639 12.1592C11.5569 12.0315 11.5128 11.883 11.5117 11.7312C11.5107 11.5793 11.5528 11.4303 11.6332 11.3015C11.6316 11.0859 11.7095 10.8773 11.852 10.7155C13.1889 8.91417 14.7235 7.26836 16.427 5.80888C18.1814 4.61205 20.0834 3.64733 22.0854 2.93873C22.1833 2.89463 22.2896 2.87256 22.3969 2.8741C22.5042 2.87564 22.6099 2.90074 22.7064 2.94763C22.803 2.99452 22.888 3.06206 22.9556 3.14546C23.0232 3.22886 23.0716 3.32609 23.0974 3.43026C24.4835 4.68956 25.7612 6.0633 26.9169 7.53694C29.6514 10.5202 32.368 13.515 35.0666 16.5213C38.9217 20.8121 43.3937 24.9843 46.7611 29.6837L46.7785 29.7194C46.9062 29.7751 47.0181 29.8617 47.104 29.9714C47.19 30.0811 47.2473 30.2105 47.2708 30.3479C47.2943 30.4852 47.2833 30.6263 47.2387 30.7583C47.1942 30.8904 47.1175 31.0093 47.0156 31.1043C46.4273 31.5977 45.9304 32.1908 45.5477 32.8565C45.7175 34.0585 45.437 35.2807 44.7603 36.2885C44.7852 36.3552 44.8014 36.4249 44.8085 36.4957C44.8316 36.7029 44.8432 36.9102 44.8615 37.1231C52.5178 37.5713 60.762 43.8359 61.7268 51.7389C62.6385 59.2256 56.9329 64.6642 50.6539 67.9497C52.0995 69.1275 53.204 70.6358 54.5601 71.9205C57.0413 72.3838 59.3907 73.3859 61.4424 74.8562C61.9115 74.1635 62.4776 73.5416 63.1233 73.0096C63.818 72.3453 64.6568 71.8506 65.5742 71.5639C65.1357 68.4866 68.1841 66.7643 70.3931 64.9302C71.5977 63.7437 73.04 62.8259 74.6251 62.2374C75.9329 61.8702 77.2707 62.7578 78.4127 63.3554C80.4666 61.5618 82.3016 58.8401 85.1717 58.4844C87.9291 58.1471 89.7825 59.5504 91.2735 61.5685C92.7943 59.881 94.5763 57.9168 96.9019 57.9062C98.9085 57.8936 101.376 59.6043 102.636 61.0481C106.389 65.3514 101.524 69.8436 98.5057 72.6781C98.4776 72.7036 98.448 72.7274 98.417 72.7494C97.7068 73.7336 96.6409 74.4022 95.4457 74.6133C93.7022 76.5506 91.7218 78.2606 89.5512 79.7031C87.7643 81.035 86.1066 81.6027 84.2186 80.928C83.8753 82.0347 83.3545 83.0783 82.6765 84.0179C82.2138 84.676 81.5808 85.1957 80.8453 85.5214C80.8999 85.6333 80.9434 85.7501 80.9754 85.8703C80.9979 85.965 81.006 86.0624 80.9995 86.1595C81.0064 86.1912 81.0103 86.2234 81.0111 86.2558C81.0567 87.7882 81.0071 89.322 80.8627 90.8483C81.2843 91.2726 81.5684 91.8141 81.6779 92.4022C81.7874 92.9903 81.7172 93.5977 81.4766 94.1454C85.0041 97.057 88.0303 100.815 91.0181 104.248C93.0063 106.538 92.9591 109.077 90.2904 110.604C90.1281 110.705 89.9356 110.747 89.7459 110.722C89.7276 110.722 89.7102 110.728 89.6919 110.728C87.5716 110.705 86.1885 108.823 84.9935 107.278C83.4497 105.037 81.6372 102.994 79.5963 101.194C79.5076 101.324 79.4035 101.454 79.3004 101.585C79.389 104.68 80.1235 108.989 78.0928 111.468C78.0791 111.58 78.0293 111.684 77.9511 111.764C77.9511 111.782 77.9569 111.793 77.9569 111.812V116.547C77.9606 116.68 77.9336 116.812 77.8779 116.933C77.8222 117.054 77.7394 117.161 77.6358 117.245C77.5322 117.329 77.4107 117.388 77.2807 117.417C77.1507 117.446 77.0157 117.445 76.8861 117.414C75.089 118.039 73.1863 118.305 71.2865 118.196C69.0139 118.184 66.7828 118.356 64.7328 117.213C64.5935 117.144 64.478 117.035 64.4009 116.9C64.3238 116.765 64.2887 116.61 64.3001 116.455C63.9224 114.938 63.838 113.364 64.0514 111.815C63.9794 111.745 63.9229 111.66 63.8856 111.567C63.7672 111.449 63.6381 111.342 63.5001 111.248C63.3309 111.144 63.2001 110.988 63.1276 110.803C63.0551 110.618 63.0448 110.414 63.0982 110.223C62.8727 108.898 62.9855 107.536 62.8669 106.193V106.157C61.2217 106.24 59.6122 106.584 57.9786 106.779C57.862 106.796 57.7431 106.788 57.6297 106.755C57.165 106.848 56.6845 106.821 56.233 106.677C55.7816 106.533 55.3741 106.277 55.0487 105.932C54.7769 105.991 54.4984 106.029 54.2266 106.087C54.6527 107.317 55.1569 108.518 55.7359 109.684C56.6293 111.495 57.7473 113.147 58.0432 115.171C58.0732 115.356 58.047 115.546 57.968 115.716C57.889 115.886 57.7607 116.028 57.5998 116.124C57.5084 116.211 57.3993 116.277 57.2799 116.317C56.5088 116.596 55.9074 117.483 55.2386 117.956C54.9115 118.224 54.5215 118.405 54.1053 118.482C53.6891 118.558 53.2602 118.528 52.859 118.393C52.6431 118.309 52.4673 118.146 52.3675 117.937C52.3178 117.892 52.2723 117.843 52.2316 117.79C49.3315 114.002 47.8165 109.469 45.7337 105.225C43.9026 102.734 41.8786 100.135 42.8511 96.9509C42.8395 96.9452 42.8337 96.9509 42.8212 96.9452C37.9445 95.0398 32.1569 91.6598 30.9792 86.0255C29.8304 80.5686 33.3279 75.5742 36.5595 71.4666C36.5595 71.4367 36.5537 71.4068 36.5537 71.3779C36.5659 71.1358 36.5935 70.8947 36.6366 70.6561C35.8605 70.7688 35.0741 70.7924 34.2927 70.7264C34.0908 70.6741 33.9145 70.5509 33.796 70.3792C33.6776 70.2075 33.625 69.9988 33.6479 69.7915C33.6421 69.78 33.6421 69.7742 33.6363 69.7617C33.3302 65.9842 33.2195 62.1934 33.3048 58.4044C33.3048 58.3871 33.3106 58.3746 33.3106 58.363L33.2335 58.2859C33.2321 58.2841 33.2314 58.2818 33.2317 58.2796C33.232 58.2773 33.2331 58.2753 33.2349 58.2738C33.2367 58.2724 33.239 58.2718 33.2413 58.2721C33.2435 58.2723 33.2456 58.2735 33.247 58.2753H33.2451ZM101.775 66.2593C102.1 65.7008 102.255 65.0593 102.221 64.4137C102.187 63.7682 101.965 63.1468 101.582 62.6258C100.546 61.2236 99.0542 60.2255 97.3626 59.8029C97.1412 59.7531 96.9124 59.7449 96.688 59.7788C96.323 60.0831 96.0725 60.5025 95.9777 60.9681C98.8825 60.8794 101.321 63.4894 101.777 66.2593H101.775ZM100.573 66.7209C100.324 64.431 98.4132 62.2114 96.0278 62.2114C96.3509 63.2819 96.9359 64.255 97.7299 65.0424C98.5238 65.8298 99.5017 66.4068 100.575 66.7209H100.573ZM98.3476 70.2869C99.0348 69.5159 99.6911 68.7131 100.426 67.9738C97.3125 67.4235 94.2226 63.5347 94.7315 60.6886C93.7416 61.5159 92.8267 62.429 91.9973 63.4171C91.9425 63.4713 91.8832 63.5206 91.8199 63.5645C91.7724 63.6088 91.7207 63.6485 91.6657 63.6831C91.8733 64.7877 91.7815 65.9278 91.3997 66.985C92.5659 68.8798 95.4534 71.0869 97.8445 70.5664C97.9747 70.4161 98.1534 70.3162 98.3495 70.284L98.3476 70.2869ZM94.9686 72.8968C95.3416 72.8753 95.7053 72.7725 96.0344 72.5957C96.3635 72.4189 96.6501 72.1724 96.874 71.8733C95.6685 71.7156 94.5075 71.3154 93.4608 70.6969C92.4141 70.0784 91.5035 69.2544 90.7839 68.2745C90.2168 69.178 89.5027 69.9803 88.6712 70.6483C88.2279 71.003 87.7952 71.3644 87.3576 71.7191C87.9384 72.614 88.696 73.3807 89.5838 73.9722C90.4717 74.5637 91.471 74.9675 92.5206 75.1588C93.1199 74.6375 93.6667 74.0587 94.1532 73.4308C94.1721 73.4061 94.1941 73.3841 94.2188 73.3652C94.2872 73.224 94.394 73.1049 94.5269 73.0216C94.6599 72.9382 94.8136 72.894 94.9705 72.894L94.9686 72.8968ZM89.7844 77.3004C90.2933 76.9274 90.8022 76.5544 91.2995 76.1699C89.3076 75.5182 87.5841 74.2318 86.3929 72.5075C85.3578 73.3607 84.3262 74.2214 83.2982 75.0895C83.831 75.9759 84.5509 76.7353 85.4075 77.3149C86.2641 77.8945 87.2368 78.2803 88.2578 78.4453C88.7561 78.0907 89.2592 77.6878 89.7863 77.2975L89.7844 77.3004ZM90.3993 65.3157C90.5236 64.5004 90.4042 63.6665 90.0562 62.9188C89.4288 61.9741 88.5925 61.1863 87.612 60.6163C86.7458 60.2987 85.7926 60.3134 84.9366 60.6578C84.8928 60.7215 84.8387 60.7775 84.7766 60.8235L84.7592 60.9479C87.134 60.6433 89.7449 62.9689 90.4012 65.3128L90.3993 65.3157ZM90.275 108.272C91.5713 106.17 87.2217 102.927 85.9611 101.394C84.3372 99.3449 82.5392 97.4401 80.587 95.7009C80.6044 96.2927 80.6285 96.8787 80.616 97.4521C82.6586 99.2354 84.5095 101.227 86.1384 103.395C87.3894 104.99 89.2119 106.487 90.2769 108.269L90.275 108.272ZM89.5945 108.94C89.6003 108.934 89.6119 108.934 89.6186 108.928C88.517 106.94 86.4227 105.146 85.032 103.406C83.6735 101.671 82.1708 100.053 80.5398 98.5711C80.4996 98.9008 80.4352 99.2271 80.3471 99.5474C82.0571 100.842 83.5686 102.379 84.8335 104.111C85.7915 105.433 87.6969 108.807 89.5965 108.938L89.5945 108.94ZM89.7073 67.4698C89.2493 67.5201 88.7889 67.5439 88.3281 67.5411C87.7642 67.5055 87.2157 67.3427 86.7237 67.065C86.2316 66.7872 85.8088 66.4017 85.4869 65.9374C84.4166 64.772 83.7326 63.3043 83.5285 61.7353C82.2496 62.7058 81.0429 63.7592 79.8468 64.83C80.0414 66.1223 80.4815 67.3654 81.1431 68.4924C81.6257 69.2586 82.2646 69.9144 83.0179 70.4169C83.7712 70.9195 84.622 71.2574 85.5149 71.4088C85.5563 71.4203 85.5862 71.4444 85.6218 71.456C87.1961 70.3621 88.5774 69.014 89.7092 67.4669L89.7073 67.4698ZM88.3301 66.292C88.5903 66.2564 88.9575 66.2805 89.3064 66.2564C89.1705 64.3211 86.8266 61.8769 84.8267 62.1911C85.0746 63.2669 85.6072 64.2562 86.3688 65.0555C86.8641 65.5904 87.5195 66.4019 88.3301 66.292ZM84.82 79.2501C85.402 79.4555 86.0343 79.47 86.6251 79.2915C84.8506 78.6789 83.3387 77.4782 82.3402 75.8884C82.0982 76.0956 81.8583 76.3029 81.6183 76.5043C82.4244 77.6861 83.5291 78.6335 84.82 79.2501ZM81.7609 74.6345C82.6486 73.8761 83.542 73.1253 84.4412 72.4024C82.8858 72.0319 81.511 71.1244 80.5591 69.8397C79.7061 68.6193 79.1046 67.2413 78.7896 65.7861C77.7593 66.7151 76.7242 67.6327 75.6467 68.503C76.1016 69.9393 76.8942 71.2456 77.958 72.3124C79.0219 73.3793 80.3259 74.1756 81.7609 74.6345ZM82.6428 79.8004C82.6483 79.6775 82.6784 79.5568 82.7315 79.4457C81.9425 78.8482 81.2498 78.1331 80.6776 77.3254C79.9612 77.9474 79.2471 78.571 78.5351 79.1961C78.4937 80.4741 78.405 81.753 78.3279 83.031C78.3809 83.4397 78.4243 83.8483 78.4638 84.256C78.5695 84.2146 78.6819 84.1927 78.7954 84.1914C79.3451 84.2034 79.8872 84.0618 80.3609 83.7826C80.8345 83.5034 81.2209 83.0976 81.4766 82.6108C82.0725 81.774 82.4712 80.8132 82.6428 79.8004ZM80.3875 75.8335C80.4839 75.7448 80.5947 75.6562 80.695 75.5675C79.297 75.0133 78.0318 74.17 76.9823 73.0929C75.9328 72.0158 75.1226 70.7292 74.6048 69.3174C74.2675 69.5718 73.9186 69.8205 73.5697 70.0575C73.9514 70.8343 74.3864 71.5837 74.8718 72.3003C75.466 73.2663 76.2706 74.0858 77.2256 74.6976C78.1807 75.3094 79.2615 75.6977 80.3875 75.8335ZM79.8844 92.4703C79.8261 92.3184 79.7176 92.1909 79.577 92.1089C79.3946 92.0207 79.2526 91.8663 79.1799 91.6771C79.0869 91.5159 79.0477 91.3292 79.0681 91.1441C76.1461 91.8886 73.1329 92.2131 70.1194 92.1079C68.2601 92.171 66.4003 91.9961 64.5853 91.5875C64.5862 91.5997 64.5842 91.6119 64.5796 91.6231C64.5853 91.6463 64.5969 91.6646 64.5911 91.6877C64.5911 91.8805 64.5738 92.0732 64.5555 92.266C65.4505 92.1424 66.3616 92.3061 67.1577 92.7334C71.4001 92.9941 75.6567 92.9048 79.8844 92.4665V92.4703ZM79.1799 90.2093C79.262 88.9999 79.2819 87.7872 79.2397 86.5758C74.1552 87.3629 69.0138 87.723 63.8693 87.6524C63.7979 88.3742 63.7864 89.098 63.6678 89.8132C63.6563 89.8951 63.6264 90.0136 63.5975 90.1322C65.6629 91.4641 68.7701 91.2212 71.1487 91.2627C73.8593 91.2456 76.5572 90.8904 79.1799 90.2054V90.2093ZM78.1381 100.2C79.1443 98.8091 78.8782 96.9442 78.8069 95.2634C75.7149 96.0319 72.5035 96.1955 69.3493 95.7452C69.5574 96.5745 69.5782 97.4397 69.4104 98.2781C69.2425 99.1164 68.8901 99.9069 68.3788 100.592C67.9412 101.245 67.3235 101.757 66.6007 102.066C65.8779 102.374 65.0811 102.467 64.3068 102.332C64.3367 102.711 64.3723 103.083 64.408 103.462C66.9524 104.344 70.6283 103.859 71.1015 100.775C71.1069 100.766 71.1108 100.757 71.113 100.746C71.121 100.597 71.1876 100.456 71.2984 100.356C71.4091 100.255 71.5551 100.202 71.7048 100.208C73.8476 100.33 75.9957 100.327 78.1381 100.196V100.2ZM78.671 94.3815C78.5986 94.2109 78.5393 94.035 78.4937 93.8553C75.1959 94.1163 71.8851 94.1736 68.5802 94.0268C68.6332 94.1039 68.693 94.1801 68.7402 94.2629C68.8396 94.4321 68.9266 94.6083 69.0004 94.7901C72.2188 95.3115 75.5097 95.1711 78.672 94.3776L78.671 94.3815ZM77.7179 106.686C77.795 104.875 77.5646 102.916 77.5251 101.502C75.7614 101.632 73.9919 101.495 72.2243 101.454C71.461 104.745 67.5548 105.644 64.5304 104.804C64.5776 105.265 64.6191 105.733 64.648 106.195C64.6721 106.503 64.6836 106.816 64.6836 107.13C69.0333 107.345 73.3932 107.195 77.7179 106.682V106.686ZM77.3391 85.6043C77.3516 84.7581 77.3873 83.9061 77.4403 83.0542C77.3333 82.208 77.1974 81.3675 77.0548 80.5271C76.6635 80.8818 76.2674 81.2307 75.877 81.5873C75.8119 81.652 75.7323 81.7002 75.6448 81.728C75.5573 81.7559 75.4645 81.7624 75.3739 81.7473C75.3034 81.7588 75.2315 81.7588 75.1609 81.7473C74.4046 81.5834 73.6794 81.2997 73.0127 80.9068C72.0826 82.0721 71.2364 83.3867 70.2485 84.5519C70.3165 85.1233 70.3461 85.6987 70.3372 86.2741C72.6696 86.1411 75.0035 85.9166 77.3391 85.6005V85.6043ZM75.2506 80.4751C76.5642 79.2684 77.8904 78.055 79.2271 76.8532C77.9922 76.5681 76.8345 76.0162 75.8356 75.2361C74.8366 74.4561 74.0204 73.4669 73.4444 72.3378C72.2448 70.5678 71.5361 68.5112 71.3906 66.3778C71.2942 66.4549 71.2065 66.532 71.1015 66.6091C69.9237 67.5141 68.32 68.4673 67.6511 69.7809C68.0357 73.7344 71.113 79.4342 75.2506 80.4751ZM76.4399 110.636C77.1168 109.89 77.527 108.941 77.6061 107.937C73.3213 108.418 69.0054 108.563 64.6981 108.369C64.7009 108.913 64.7522 109.456 64.8513 109.991C64.8581 110.02 64.8581 110.044 64.8639 110.067C65.1357 110.298 65.3901 110.549 65.6629 110.784C65.6629 110.79 65.6686 110.79 65.6686 110.796C69.1954 111.096 72.7404 111.116 76.2703 110.854C76.3155 110.773 76.3727 110.7 76.4399 110.636ZM76.1797 115.797V114.192C72.7203 114.662 69.2166 114.71 65.7457 114.334C65.7987 114.843 65.8874 115.346 65.9876 115.843C67.6627 116.614 69.4737 116.34 71.2885 116.421C72.9449 116.574 74.6146 116.36 76.1797 115.797ZM76.1797 112.956V112.104C72.7302 112.335 69.2685 112.315 65.8219 112.045C65.7498 112.388 65.7062 112.736 65.6918 113.086C69.1791 113.486 72.7033 113.443 76.1797 112.956ZM69.4197 84.1509C70.4374 82.9549 71.3019 81.6596 72.2725 80.4278C71.1497 79.606 70.1724 78.602 69.3811 77.4575C68.3523 78.6305 67.4071 79.8742 66.5524 81.1796C65.7534 82.4229 64.4157 84.0979 64.1555 85.5831C64.1123 85.7227 64.1026 85.8705 64.1272 86.0145C64.1518 86.1585 64.2101 86.2947 64.2972 86.412C64.9188 86.4178 65.5501 86.4178 66.1669 86.412C66.7295 86.2222 67.2663 85.9632 67.7649 85.6409C68.3696 85.2067 68.9246 84.707 69.4197 84.1509ZM69.4553 86.3233C69.4611 86.0149 69.4611 85.7132 69.4496 85.4116C69.0912 85.7609 68.7043 86.0797 68.293 86.3647C68.6689 86.3464 69.0592 86.3387 69.4505 86.3233H69.4553ZM67.2386 99.1243C67.5231 98.6346 67.6998 98.0898 67.757 97.5264C67.8141 96.963 67.7505 96.3939 67.5702 95.857C67.4551 95.5058 67.2691 95.1819 67.0238 94.9054C66.7784 94.629 66.4788 94.4059 66.1436 94.25C65.8085 94.0942 65.4449 94.0088 65.0753 93.9992C64.7058 93.9897 64.3383 94.0562 63.9955 94.1945C64.4399 94.2916 64.8604 94.4767 65.232 94.7391C65.7447 95.1009 66.1408 95.6042 66.3721 96.1875C66.6033 96.7708 66.6596 97.4088 66.5341 98.0236C66.4484 98.5407 66.2564 99.0343 65.9702 99.4734C65.6841 99.9125 65.31 100.288 64.8716 100.575C65.3649 100.597 65.8537 100.471 66.2744 100.212C66.6951 99.9538 67.0284 99.5747 67.2309 99.1243H67.2386ZM68.8771 76.6942C68.1597 75.5435 67.5761 74.3148 67.1374 73.0318C67.0043 73.0972 66.8588 73.1336 66.7105 73.1388C66.6321 73.1644 66.5509 73.1803 66.4686 73.186C65.5874 73.3238 64.7829 73.7673 64.196 74.4389C63.7923 74.7883 63.4181 75.1703 63.077 75.581C63.0857 75.6239 63.0857 75.6682 63.077 75.7111C62.6626 77.5577 62.3195 79.4043 61.9648 81.2625C61.6333 82.9905 62.4737 84.2223 63.2254 85.559C63.5321 84.4832 64.0183 83.4669 64.6634 82.553C65.8894 80.4793 67.2973 78.5187 68.8703 76.6942H68.8771ZM65.6156 98.0766C65.9713 96.3129 64.2307 94.1646 62.6983 95.4368C62.2923 96.1167 62.0844 96.8964 62.098 97.6881C62.1116 98.4799 62.3462 99.252 62.7754 99.9175C62.8399 99.9589 62.9113 99.9946 62.9768 100.03C63.2018 100.109 63.4421 100.133 63.6784 100.102C63.9146 100.071 64.1404 99.9857 64.3377 99.8519C64.6604 99.6595 64.9398 99.4025 65.1586 99.097C65.3773 98.7915 65.5306 98.4441 65.6089 98.0766H65.6156ZM63.2958 92.6197C63.3074 92.3778 63.3257 92.1378 63.343 91.8978C63.0182 91.7873 62.7418 91.5678 62.5606 91.2764C62.3794 90.9851 62.3048 90.64 62.3494 90.2999C62.385 89.8093 62.438 89.3178 62.491 88.8262C60.3842 88.832 58.2832 88.8793 56.1879 89.0277C58.5675 90.0512 60.6974 91.8227 61.2189 94.342C61.5699 93.8358 62.0113 93.3986 62.5209 93.0524C62.7632 92.885 63.0203 92.7401 63.2891 92.6197H63.2958ZM62.7397 86.8437C62.7571 86.7859 62.781 86.7303 62.811 86.678C62.7754 86.6067 62.7281 86.5363 62.6867 86.465C62.5566 86.2722 62.4323 86.0795 62.3195 85.8963C61.5918 84.8497 60.6859 83.776 60.8632 82.4932C60.8931 82.3005 60.9287 82.1145 60.9596 81.9256C60.9315 81.5533 60.9244 81.1797 60.9384 80.8066C60.9509 80.5348 60.9683 80.2621 60.9924 79.9903C60.9798 79.9787 60.9683 79.9729 60.9625 79.9604C59.6662 78.0251 54.8367 75.6639 52.5525 77.3148C50.8476 78.5465 49.8414 80.6948 49.0607 82.6417C51.2514 82.0981 53.5173 81.5198 55.734 82.393C58.0959 83.4046 60.2085 84.9196 61.9243 86.8322C62.1075 86.8197 62.2848 86.8081 62.4631 86.8023C62.5546 86.803 62.6455 86.817 62.733 86.8437H62.7397ZM62.7098 104.385C62.651 103.74 62.6038 103.095 62.5566 102.449C62.1956 103.196 61.7444 103.896 61.2131 104.533C61.7027 104.468 62.2 104.415 62.7031 104.386L62.7098 104.385ZM61.1311 78.7653C61.2188 78.1793 61.3372 77.5983 61.4858 77.0247C61.3422 76.9882 61.2088 76.9197 61.0955 76.8243C59.0287 75.1508 56.5635 74.0414 53.9404 73.6043C53.7433 73.5717 53.5657 73.466 53.443 73.3084C53.4315 73.2968 53.419 73.291 53.4016 73.2727C51.9752 71.9591 50.8784 70.2725 49.2978 69.1236C49.1703 69.0289 49.0669 68.9054 48.9962 68.7632C48.2155 69.1236 47.4281 69.4494 46.6522 69.7453C46.9134 70.0344 47.1341 70.3428 47.4233 70.657C47.9794 71.2729 48.6068 71.7875 49.1928 72.3735C50.3514 73.6418 51.4361 74.9756 52.4417 76.3684C52.8015 76.2142 53.1868 76.1279 53.578 76.114C56.2881 76.0128 59.2768 76.7057 61.1311 78.7653ZM61.2969 100.932C61.0407 100.458 60.8307 99.9611 60.6695 99.4471C59.7638 101.574 58.2636 103.395 56.3489 104.691C56.9589 105.377 58.1126 104.884 58.793 104.388C59.9386 103.498 60.8082 102.3 61.3008 100.935L61.2969 100.932ZM45.8764 68.8904C52.9486 66.3161 62.7089 60.013 60.5423 51.1568C59.5818 47.6617 57.5722 44.5454 54.7846 42.2285C51.9971 39.9117 48.5659 38.5058 44.954 38.2007C44.9839 38.6825 44.9955 39.1644 45.0071 39.6328C50.8071 41.7532 59.4069 45.0127 59.1284 52.6054C58.927 58.1577 54.5022 62.223 49.6833 64.9697C49.559 65.0917 49.4037 65.1774 49.2342 65.2174C47.7967 66.0076 46.3123 66.7093 44.7892 67.3185C44.773 67.3396 44.7553 67.3596 44.7362 67.3782C45.2153 67.8025 45.6051 68.3179 45.8831 68.8943L45.8764 68.8904ZM56.5956 102.906C58.9867 100.841 61.0049 97.8222 59.9688 94.5849C58.9867 91.5075 56.1455 89.9587 53.1395 89.3949C53.1038 89.4537 53.0624 89.5192 53.0325 89.578C53.0026 89.6368 52.9737 89.7264 52.9679 89.7496C52.9431 89.8273 52.907 89.901 52.8609 89.9683C55.6366 91.2347 57.1979 93.5257 57.7434 96.8218C58.1387 98.9221 57.729 101.094 56.5956 102.906ZM53.684 87.1454C55.6141 86.8714 57.5667 86.79 59.513 86.9025C58.3496 85.6336 56.8895 84.6732 55.2636 84.1076C52.8436 83.4387 50.837 84.0661 48.4988 84.5991C48.3164 84.6457 48.1238 84.6309 47.9506 84.5571C47.7775 84.4832 47.6335 84.3544 47.5408 84.1905C47.5063 84.1609 47.474 84.1287 47.4445 84.0941C46.5771 82.9568 45.0475 82.1761 44.0124 81.17C42.8087 80.0275 41.7119 78.7774 40.7356 77.4353C40.6265 77.3012 40.5694 77.1323 40.5747 76.9596C40.5801 76.7868 40.6474 76.6218 40.7645 76.4946C39.7981 76.3152 38.9008 75.8704 38.1729 75.2099C35.9947 78.7432 32.74 83.9399 35.35 87.7931C37.7286 91.308 42.2323 91.7995 45.9313 93.2866C45.9103 92.63 46.0557 91.9787 46.3542 91.3935C46.6526 90.8082 47.0943 90.308 47.6382 89.9394C48.7018 89.3084 49.8927 88.9222 51.1242 88.8089C51.3783 88.3402 51.7456 87.9424 52.1927 87.6519C52.6398 87.3613 53.1524 87.1872 53.684 87.1454ZM53.6011 104.019C56.5484 102.332 57.1931 98.7185 56.2342 95.6026C55.8999 94.3706 55.2345 93.2537 54.3102 92.3732C53.3859 91.4927 52.238 90.8823 50.9912 90.6083C50.2857 90.7 49.6012 90.9119 48.9672 91.2347C48.5694 91.4414 48.2389 91.7573 48.0146 92.1454C47.7902 92.5335 47.6814 92.9776 47.7008 93.4254C48.0976 93.3727 48.4968 93.3406 48.8969 93.329C51.0683 93.2645 53.6609 93.2587 54.6256 95.6489C55.0825 96.7124 55.1853 97.8947 54.9189 99.0211C54.6525 100.148 54.031 101.159 53.1462 101.905C53.2651 102.622 53.4167 103.327 53.6011 104.019ZM55.7436 115.211C55.8834 115.102 56.0295 115.001 56.1812 114.909C55.6366 112.725 54.2102 110.772 53.364 108.689C52.4277 106.526 51.7521 104.259 51.3516 101.936C51.3469 101.889 51.345 101.841 51.3459 101.794C51.2794 101.644 51.2667 101.476 51.3099 101.318C51.3531 101.16 51.4496 101.022 51.5829 100.927C52.9322 99.8201 54.3779 97.1977 52.5593 95.7009C51.423 94.7718 49.6351 95.0263 48.2743 95.1381C47.6874 95.1874 47.112 95.3293 46.5693 95.5583C46.9713 95.7197 47.3355 95.9625 47.6392 96.2713C47.9428 96.5802 48.1794 96.9485 48.3339 97.3531C48.4885 97.7578 48.5578 98.19 48.5374 98.6226C48.517 99.0553 48.4074 99.4791 48.2155 99.8673C50.8958 104.94 52.512 110.393 55.7436 115.211ZM55.0449 115.803C55.0449 115.797 55.0506 115.791 55.0564 115.785C51.7362 110.884 50.1325 105.356 47.3924 100.202C47.0121 100.791 46.4423 101.233 45.7771 101.455C46.303 102.309 46.7563 103.206 47.1322 104.136C47.2209 104.26 47.3153 104.385 47.404 104.509C47.4672 104.588 47.5135 104.679 47.54 104.777C47.5665 104.875 47.5727 104.977 47.5582 105.078C47.7056 105.385 47.8599 105.692 48.0314 105.988C50.0794 109.554 51.1627 113.405 53.6483 116.725C54.1803 116.698 54.6661 116.146 55.0449 115.803ZM48.2087 82.3756C48.9191 80.5705 49.9908 78.0251 51.6716 76.8117C50.8153 75.5895 49.8817 74.4232 48.8766 73.3199C48.309 72.7523 47.67 72.255 47.1312 71.6632C46.9182 71.4261 46.7226 71.1601 46.5212 70.8999C46.5395 71.0117 46.5626 71.1187 46.5809 71.2247C46.5867 71.2546 46.5809 71.2787 46.5867 71.3076C46.5976 71.3584 46.6053 71.4099 46.6098 71.4618C46.6993 72.0621 46.6646 72.6745 46.5078 73.2609C46.351 73.8473 46.0754 74.3952 45.6982 74.8708C45.3209 75.3463 44.8501 75.7393 44.3147 76.0254C43.7794 76.3116 43.191 76.4847 42.586 76.5342C42.5562 76.6305 42.5321 76.7414 42.5089 76.8474C43.5326 78.1871 44.6822 79.4257 45.9419 80.5464C46.6744 81.2037 47.4927 81.7299 48.2087 82.3756ZM48.0671 64.6257C47.4281 63.5963 47.1621 62.3771 45.806 61.9801C44.7285 61.74 43.6132 61.724 42.5292 61.9328C42.5706 62.6432 42.6063 63.3535 42.6477 64.0638C42.659 64.07 42.6691 64.0782 42.6776 64.0879C42.8019 64.164 42.9263 64.2411 43.0448 64.324C43.3698 64.5276 43.6821 64.7509 43.9797 64.9929C44.3609 65.3002 44.6547 65.7024 44.8316 66.159C45.8243 65.7446 46.925 65.2319 48.0671 64.6257ZM45.3029 100.651C45.8488 100.506 46.3317 100.186 46.6765 99.7384C47.0212 99.2912 47.2085 98.7425 47.2093 98.1778C47.2171 97.9424 47.178 97.7077 47.094 97.4875C47.0101 97.2674 46.8831 97.0662 46.7205 96.8957C46.5579 96.7251 46.3629 96.5888 46.147 96.4945C45.9311 96.4002 45.6985 96.35 45.4629 96.3466C44.3739 97.5263 44.4153 98.9884 45.3029 100.651ZM46.5279 55.9738C46.8674 54.1658 46.9692 52.3213 46.8305 50.487C46.1426 50.2875 45.4228 50.222 44.7102 50.2942C44.716 52.1639 44.7517 54.0346 44.8644 55.9044C45.4037 56.0701 45.9767 56.094 46.5279 55.9738ZM43.0583 74.5449C43.6798 74.35 44.2062 73.9302 44.5345 73.3676C44.8629 72.8051 44.9695 72.1402 44.8336 71.5032C44.6264 70.231 44.183 68.4316 42.7027 68.2003C42.6893 68.1959 42.6753 68.1939 42.6612 68.1946C43.4053 69.0676 43.8464 70.1584 43.9183 71.3033C43.9902 72.4482 43.6892 73.5855 43.0602 74.5449H43.0583ZM44.1888 31.7202C44.4632 31.2715 44.7822 30.8518 45.141 30.4673C42.0955 26.2392 37.1715 21.505 33.4128 17.3319C30.8388 14.4791 28.2565 11.6324 25.6659 8.79179C24.5354 7.41457 23.3322 6.09874 22.0613 4.84991C21.4638 5.08701 20.872 5.33181 20.286 5.59588C21.4131 6.73914 22.4799 7.94036 23.4819 9.19465C26.3588 12.2662 29.2049 15.3494 32.0519 18.447C34.9991 21.6544 37.9387 24.8699 40.8705 28.0935C41.9519 29.2751 43.1903 30.4393 44.1907 31.7202H44.1888ZM41.5664 36.7858C43.0699 35.822 43.9218 34.8978 43.7975 33.1341C43.7149 32.9712 43.698 32.7828 43.7503 32.6078C42.4613 31.0164 41.0882 29.495 39.6369 28.0501C36.9081 25.0502 34.1719 22.0576 31.4283 19.0725C28.5813 15.9826 25.7353 12.8879 22.8584 9.82014C21.8878 8.78408 20.687 6.97313 19.4138 6.01995C18.3415 6.55181 17.358 7.24658 16.4984 8.07955C15.3862 9.19272 14.4214 10.4235 13.4094 11.6186C14.5741 13.0263 15.8229 14.3623 17.1489 15.6192C19.7004 18.3474 22.2611 21.0659 24.8312 23.7748C28.3886 27.5335 31.8273 31.54 35.6092 35.0857C35.6713 35.0595 35.7359 35.0395 35.802 35.026C35.9592 34.92 36.1506 34.877 36.338 34.9056C36.5255 34.9342 36.6954 35.0322 36.8139 35.1802C38.1305 36.6615 39.5858 38.0532 41.5664 36.7858ZM43.2472 95.9939C43.6948 95.1829 44.3836 94.5311 45.2181 94.129C41.3244 92.6322 35.7547 91.9335 34.0382 87.5541C32.2273 82.9134 35.0743 78.2738 37.4471 74.3676C37.1429 73.9253 36.9112 73.4373 36.7609 72.9219C33.8368 76.6913 30.345 81.8851 32.2687 86.5691C34.257 91.4111 38.4244 94.0798 43.1055 95.9091C43.1549 95.9313 43.2013 95.9598 43.2433 95.9939H43.2472ZM43.2828 43.1304C43.2597 41.384 43.2713 39.6444 43.1585 37.9106C42.7081 38.2259 42.2285 38.4973 41.7263 38.7211C41.2465 38.9384 40.7312 39.0668 40.2055 39.0999C40.8075 39.8732 41.1362 40.8242 41.1404 41.8042C41.0575 45.19 37.1889 45.4146 34.1867 45.2739C34.2033 45.3367 34.2111 45.4016 34.2098 45.4666C34.257 47.692 34.4585 49.9 34.4585 52.136C34.4585 53.3022 34.3814 54.4683 34.3997 55.6287C36.7112 55.1177 39.0936 55.0095 41.442 55.3088C41.4189 51.9587 41.3591 48.6153 41.3119 45.2652C41.3128 45.2353 41.317 45.2055 41.3244 45.1765C41.3034 45.0505 41.3152 44.9212 41.3585 44.801C41.4019 44.6808 41.4755 44.5738 41.5721 44.4903C42.1446 44.0479 42.7046 43.5805 43.279 43.1304H43.2828ZM42.9985 66.4964C42.987 66.4848 42.9812 66.4848 42.9696 66.4723C42.8052 66.3145 42.6268 66.1719 42.4366 66.0463C42.0049 65.7504 41.5692 65.4844 41.1519 65.1644C41.0582 65.0822 40.9859 64.9782 40.9416 64.8616C40.8972 64.745 40.8821 64.6193 40.8975 64.4955V64.4609C40.7857 62.6383 40.6903 60.8158 40.5958 58.9866C38.7669 59.1931 36.9245 59.2547 35.0859 59.1706C35.0859 62.4668 35.056 65.7456 35.3519 69.0359C35.9622 68.9474 36.5766 68.8901 37.1927 68.8644C37.2326 68.8677 37.2722 68.8738 37.3113 68.8827C37.8026 68.0857 38.4963 67.4331 39.3218 66.9913C40.1472 66.5495 41.075 66.3341 42.0107 66.3672C42.3421 66.3783 42.6716 66.4216 42.9947 66.4964H42.9985ZM41.4565 56.847C41.4565 56.6398 41.4507 56.4268 41.4507 56.2195C39.1113 55.8974 36.7328 56.0038 34.4315 56.5337C34.443 56.6937 34.4546 56.8527 34.4729 57.0156C34.5972 57.1342 34.709 57.2585 34.8218 57.3886C36.9552 57.5026 39.0945 57.4232 41.2136 57.1515C41.2865 57.0438 41.3677 56.942 41.4565 56.847ZM40.7105 74.7203C43.8708 74.2654 43.3619 69.0388 40.9119 68.2871C40.3314 68.4156 39.7978 68.7025 39.3704 69.1159C38.9431 69.5293 38.6386 70.0531 38.4909 70.6291C38.2691 71.465 38.3754 72.354 38.7881 73.114C39.2008 73.874 39.8886 74.4474 40.7105 74.7165V74.7203ZM33.2354 44.3419C35.775 44.5134 40.4975 44.6493 40.2489 41.8081C40.245 40.9415 39.913 40.1085 39.3198 39.4767C38.5548 39.0385 37.6551 38.8975 36.7927 39.0806C35.4377 39.1153 34.0941 39.0449 32.7381 39.1866C32.7239 39.204 32.714 39.2244 32.7092 39.2464C32.6244 39.8062 32.5985 40.3735 32.6321 40.9388C32.5362 42.0491 32.5323 43.1654 32.6205 44.2763L32.9752 44.2947C33.0638 44.2941 33.1518 44.3087 33.2354 44.338V44.3419Z" fill="white"/>
<path d="M42.6261 58.1865C42.6261 58.1924 42.6203 58.1924 42.6261 58.1982C42.6249 58.1944 42.6249 58.1903 42.6261 58.1865Z" fill="white"/>
<path d="M42.3146 34.4775C42.3441 34.8126 42.2689 35.1486 42.0994 35.4391C41.9299 35.7297 41.6744 35.9604 41.3681 36.0996C41.1762 36.1552 40.975 36.1706 40.7768 36.1449C40.5787 36.1192 40.388 36.0529 40.2167 35.9501C40.0454 35.8474 39.8971 35.7104 39.7811 35.5477C39.6652 35.385 39.584 35.2002 39.5427 35.0047C39.4848 34.7942 39.4739 34.5736 39.5108 34.3584C39.5478 34.1432 39.6316 33.9388 39.7565 33.7597C39.8813 33.5806 40.044 33.4311 40.2331 33.322C40.4222 33.2129 40.633 33.1467 40.8506 33.1282C41.0359 33.1183 41.2213 33.1455 41.3959 33.2083C41.5705 33.2711 41.7307 33.3683 41.8672 33.4941C42.0036 33.6198 42.1135 33.7716 42.1904 33.9405C42.2672 34.1095 42.3094 34.292 42.3146 34.4775ZM41.1667 35.2119C41.5869 34.8149 41.5339 34.0101 40.8525 34.0159C39.882 34.093 40.6337 35.7083 41.1667 35.2119Z" fill="white"/>
<path d="M36.5322 40.8279C36.5683 41.1807 36.4701 41.5343 36.257 41.8178C36.0439 42.1014 35.7318 42.2942 35.3828 42.3577C35.0338 42.4212 34.6737 42.3508 34.3744 42.1605C34.0751 41.9702 33.8586 41.6739 33.7681 41.331C33.7283 41.1227 33.7355 40.9082 33.7892 40.703C33.8429 40.4979 33.9416 40.3073 34.0783 40.1451C34.2149 39.983 34.3861 39.8534 34.5791 39.7658C34.7722 39.6781 34.9825 39.6347 35.1945 39.6386C35.5285 39.6231 35.8554 39.7389 36.1053 39.9611C36.3552 40.1833 36.5084 40.4943 36.5322 40.8279ZM35.5906 41.1835C35.6434 41.073 35.6622 40.9492 35.6446 40.8279C35.6315 40.7405 35.5873 40.6608 35.5202 40.6033C35.4191 40.5528 35.3076 40.5264 35.1945 40.5262C34.9053 40.5378 34.4369 40.8462 34.6615 41.1835C34.7716 41.3338 34.9344 41.4371 35.1174 41.4727C35.1694 41.4845 35.2234 41.4848 35.2755 41.4735C35.3276 41.4622 35.3766 41.4395 35.419 41.4071C35.4872 41.3417 35.545 41.2663 35.5906 41.1835Z" fill="white"/>
<path d="M33.2462 58.2754C33.2455 58.2745 33.2446 58.2739 33.2436 58.2734C33.2425 58.273 33.2415 58.2727 33.2403 58.2727C33.2392 58.2727 33.2381 58.273 33.2371 58.2734C33.2361 58.2739 33.2352 58.2745 33.2345 58.2754V58.2695C33.239 58.27 33.2431 58.2721 33.2462 58.2754Z" fill="white"/>
</g>
<defs>
<clipPath id="clip0_145_1111">
<rect width="92" height="115" fill="white"/>
</clipPath>
</defs>
</svg>
